# Blender 4.3.2
# www.blender.org
mtllib dm_grove.mtl
o Plane
v 185.995163 0.000000 0.000000
v -185.279785 0.000000 0.000000
v 154.013931 0.000000 0.000000
v 137.801941 0.000000 0.000000
v 121.589943 0.000000 0.000000
v 105.377953 0.000000 0.000000
v 89.165955 0.000000 0.000000
v 83.777321 0.000000 0.000000
v 66.694595 -2.187007 0.000000
v -67.533852 -2.187007 0.000000
v -83.435074 0.000000 0.000000
v -89.165970 0.000000 0.000000
v -105.377968 0.000000 0.000000
v -121.589958 0.000000 0.000000
v -137.801956 0.000000 0.000000
v -154.013947 0.000000 0.000000
v 47.233562 -13.998104 0.000002
v 30.256224 -21.587132 0.000004
v 18.078766 -21.587133 0.000004
v 6.026251 -21.587133 0.000004
v -6.026270 -21.587133 0.000004
v -18.078794 -21.587133 0.000004
v -30.645351 -21.587132 0.000004
v -49.205399 -12.908844 0.000002
v 234.522537 0.000000 0.000000
v -236.209778 0.000000 0.000000
v -284.168793 0.000000 0.000000
v 234.522537 60.064461 -0.000010
v -236.209778 60.064461 -0.000010
v 185.995178 60.064457 -0.000010
v -185.279785 60.064457 -0.000010
v 185.995163 0.000002 10.938843
v 185.995163 0.000004 25.038816
v 185.995163 0.000006 39.031181
v 182.991501 0.000008 52.837688
v 178.964478 0.000010 66.381126
v 173.936615 0.000012 79.585747
v 167.936020 0.000014 92.377724
v 160.996246 0.000016 104.685501
v 102.146538 0.000024 164.746140
v 89.982643 0.000026 171.935104
v 77.315529 0.000026 178.194962
v 64.216034 0.000028 183.490692
v 50.757416 0.000028 187.792694
v 37.014942 0.000028 191.076904
v 23.065464 0.000030 193.324966
v 8.986995 0.000030 194.524277
v -5.141733 0.000030 194.668152
v -19.241705 0.000030 193.755798
v -33.234070 0.000028 191.792282
v -47.040577 0.000028 188.788620
v -60.584015 0.000028 184.761597
v -73.788643 0.000028 179.733734
v -86.580620 0.000026 173.733139
v -98.888397 0.000026 166.793365
v -158.949020 0.000016 107.943657
v -166.137985 0.000014 95.779762
v -172.397842 0.000012 83.112648
v -177.693573 0.000010 70.013153
v -181.995575 0.000008 56.554535
v -185.279785 0.000006 42.812061
v -185.279785 0.000004 28.862583
v -185.279785 0.000002 14.784115
v 144.459503 0.000020 127.576241
v 153.156143 0.000018 116.440254
v 154.013931 0.000016 111.175041
v 154.013931 0.000014 94.963043
v 154.013931 0.000012 78.751053
v 154.013931 0.000010 62.539066
v 154.013931 0.000006 46.327072
v 154.013931 0.000004 30.115082
v 154.013931 0.000002 13.903085
v 124.695770 0.000022 147.746658
v 134.955002 0.000020 138.031204
v 137.801941 0.000020 127.387032
v 137.801941 0.000016 111.175041
v 137.801941 0.000014 94.963043
v 137.801941 0.000012 78.751053
v 137.801941 0.000010 62.539066
v 137.801941 0.000006 46.327072
v 137.801941 0.000004 30.115082
v 137.801941 0.000002 13.903085
v 113.739197 0.000024 156.668259
v 121.589943 0.000022 143.599045
v 121.589943 0.000020 127.387032
v 121.589943 0.000016 111.175041
v 121.589943 0.000014 94.963043
v 121.589943 0.000012 78.751053
v 72.953964 38.543308 143.599045
v 121.589943 0.000006 46.327072
v 121.589943 0.000004 30.115082
v 121.589943 0.000002 13.903085
v 105.377953 0.000024 159.811035
v 105.377953 0.000022 143.599045
v 105.377953 0.000020 127.387032
v 105.377953 0.000016 111.175041
v 105.377953 0.000014 94.963043
v 105.377953 0.000012 78.751053
v 105.377953 0.000010 62.539066
v 105.377953 0.000006 46.327072
v 105.377953 0.000004 30.115082
v 105.377953 0.000002 13.903085
v 89.165955 0.000024 159.811035
v 89.165955 0.000022 143.599045
v 89.165955 0.000020 127.387032
v 89.165955 0.000016 111.175041
v 89.165955 0.000014 94.963043
v 89.165955 0.000012 78.751053
v 89.165955 0.000010 62.539066
v 89.165955 0.000006 46.327072
v 89.165955 0.000004 30.115082
v 89.165955 0.000002 13.903085
v 72.953964 0.000024 159.811035
v 72.953964 0.000022 143.599045
v 72.953964 0.000020 127.387032
v 72.953964 0.000016 111.175041
v 72.953964 0.000014 94.963043
v 57.955978 0.000010 66.529770
v 67.621620 0.000008 55.543148
v 75.232605 0.000006 43.045025
v 80.557693 0.000004 29.415140
v 83.435074 0.000002 15.067633
v 56.741974 0.000024 159.811035
v 56.741974 0.000022 143.599045
v 56.741974 0.000016 111.175041
v 56.741974 0.000014 94.963043
v 46.529377 0.000012 75.671051
v 48.980888 -2.186999 48.279552
v 58.059242 -2.187001 36.175095
v 64.216469 -2.187003 22.353987
v 67.143867 -2.187006 7.509289
v 40.529980 0.000024 159.811035
v 40.529980 0.000022 143.599045
v 40.529980 0.000020 127.387032
v 40.529980 0.000016 111.175041
v 40.529980 0.000014 94.963043
v 33.689003 0.000012 82.689255
v 37.436653 -2.186999 58.060410
v 24.317984 0.000024 159.811035
v 24.317984 0.000022 143.599045
v 24.317984 0.000020 127.387032
v 24.317984 0.000016 111.175041
v 24.317984 0.000014 94.963043
v 19.825006 0.000014 87.371124
v 24.005409 -2.186997 65.027206
v 8.105993 0.000024 159.811035
v 8.105994 0.000022 143.599045
v 8.105995 0.000020 127.387032
v 8.105996 0.000016 111.175041
v 8.105997 0.000014 94.963043
v 5.358639 0.000014 89.574409
v 9.360653 -2.186997 68.830605
v -8.106003 0.000024 159.811035
v -8.106002 0.000022 143.599045
v -8.106001 0.000020 127.387032
v -8.106000 0.000016 111.175041
v -8.105999 0.000014 94.963043
v -9.270551 0.000014 89.232162
v -5.763261 -2.186997 69.279884
v -24.317999 0.000024 159.811035
v -24.317999 0.000022 143.599045
v -24.317999 0.000020 127.387032
v -24.317999 0.000016 111.175041
v -24.317999 0.000014 94.963043
v -23.618057 0.000014 86.354782
v -20.607952 -2.186997 66.352493
v -40.529995 0.000024 159.811035
v -40.529995 0.000022 143.599045
v -40.529995 0.000020 127.387032
v -40.529995 0.000016 111.175041
v -40.529995 0.000014 94.963043
v -37.247944 0.000012 81.029694
v -34.429062 -2.186997 60.195251
v -56.741989 0.000024 159.811035
v -56.741989 0.000022 143.599045
v -56.741989 0.000020 127.387032
v -56.741989 0.000016 111.175041
v -56.741989 0.000014 94.963043
v -49.746067 0.000012 73.418709
v -42.972500 -2.187899 55.545883
v -50.085556 -2.187153 46.963223
v -59.910957 -2.187003 32.638855
v -67.084572 -2.187005 11.496662
v -72.953979 0.000024 159.811035
v -72.953979 0.000022 143.599045
v -75.328163 0.000018 125.012840
v -69.596359 0.000016 111.175034
v -75.328171 0.000014 97.337234
v -60.732685 0.000010 63.753067
v -69.873962 0.000008 52.326466
v -76.892166 0.000006 39.486092
v -81.574036 0.000004 25.622097
v -83.777321 0.000002 11.155728
v -89.165970 0.000024 159.811035
v -89.165970 0.000022 143.599045
v -89.165962 0.000020 130.744644
v -284.168793 0.000002 14.784114
v -89.165977 0.000014 91.605431
v -89.165970 0.000012 78.751053
v -89.165970 0.000010 62.539066
v -89.165970 0.000006 46.327072
v -89.165970 0.000004 30.115082
v -89.165970 0.000002 13.903085
v -105.377968 0.000024 159.811035
v -105.377968 0.000022 143.599045
v -103.003769 0.000018 125.012848
v -108.735580 0.000016 111.175049
v -103.003777 0.000014 97.337242
v -105.377968 0.000012 78.751053
v -107.752167 0.000010 60.164871
v -102.020355 0.000006 46.327072
v -107.752167 0.000004 32.489269
v -105.377968 0.000002 13.903085
v -110.643150 0.000024 158.953262
v -121.589958 0.000022 143.599045
v -121.589958 0.000020 127.387032
v -121.589958 0.000016 111.175041
v -121.589958 0.000014 94.963043
v -121.589958 0.000012 78.751053
v -121.589966 0.000010 65.896683
v -121.589966 0.000004 26.757465
v -121.589958 0.000002 13.903085
v -121.779137 0.000022 150.256622
v -132.234085 0.000022 140.752121
v -137.801956 0.000020 127.387032
v -137.801956 0.000016 111.175041
v -137.801956 0.000014 94.963043
v -137.801956 0.000012 78.751053
v -135.427765 0.000010 60.164875
v -141.159576 0.000006 46.327072
v -135.427765 0.000004 32.489273
v -137.801956 0.000002 13.903085
v -141.949539 0.000020 130.492889
v -150.871140 0.000018 119.536316
v -154.013947 0.000016 111.175041
v -154.013947 0.000014 94.963043
v -154.013947 0.000012 78.751053
v -154.013947 0.000010 62.539066
v -154.013947 0.000006 46.327072
v -154.013947 0.000004 30.115082
v -154.013947 0.000002 13.903085
v 42.546703 -14.494913 45.888954
v 50.401253 -16.180193 35.416233
v 55.728462 -16.180193 23.458281
v 47.563522 -13.998102 10.531109
v 32.558693 -16.180189 54.351303
v 22.679718 -21.587128 26.718073
v 28.034630 -21.587128 18.685699
v 30.645321 -21.587132 9.391702
v 20.938046 -16.180189 60.378941
v 15.104755 -21.587128 32.702541
v 18.078766 -21.587130 23.875868
v 18.078766 -21.587133 11.823348
v 8.267477 -16.180185 63.669617
v 6.051232 -21.587128 36.053329
v 6.026250 -21.587130 23.875868
v 6.026250 -21.587133 11.823348
v -4.817658 -16.180185 64.058319
v -3.594632 -21.587128 36.442421
v -6.026271 -21.587130 23.875868
v -6.026271 -21.587133 11.823348
v -17.661215 -16.180189 61.525558
v -12.888630 -21.587128 33.831734
v -18.078794 -21.587130 23.875868
v -18.078794 -21.587133 11.823348
v -28.965223 -16.213266 55.610462
v -20.920994 -21.587128 28.476824
v -26.905472 -21.587128 20.901855
v -30.256260 -21.587132 11.848333
v -35.197044 -15.279961 49.490932
v -39.087322 -14.517845 41.935997
v -46.842396 -14.299473 30.689560
v -48.844269 -12.908842 13.768273
v 234.522537 0.000004 25.038816
v 234.522537 0.000002 10.938843
v 185.995178 60.064465 39.031174
v 182.991501 60.064465 52.837681
v 178.964478 60.064465 66.381111
v 173.936615 60.064472 79.585732
v 167.936020 60.064472 92.377708
v 160.996246 60.064472 104.685486
v 102.146538 60.064480 164.746140
v 89.982643 60.064480 171.935104
v 77.315529 60.064487 178.194962
v 64.216034 60.064487 183.490692
v 50.757416 60.064487 187.792694
v 37.014942 60.064487 191.076904
v 23.065464 60.064487 193.324966
v 8.986995 60.064487 194.524277
v -5.141733 60.064487 194.668152
v -19.241705 60.064487 193.755798
v -33.234070 60.064487 191.792282
v -47.040577 60.064487 188.788620
v -60.584015 60.064487 184.761597
v -73.788643 60.064487 179.733734
v -86.580620 60.064480 173.733139
v -98.888397 60.064480 166.793365
v -158.949020 60.064472 107.943642
v -166.137985 60.064472 95.779747
v -172.397842 60.064472 83.112633
v -177.693573 60.064465 70.013138
v -181.995575 60.064465 56.554527
v -185.279785 60.064465 42.812054
v -236.209778 0.000002 14.784114
v -236.209778 0.000004 28.862583
v -236.209778 0.000006 42.812061
v 144.459503 60.064480 127.576225
v 153.156143 60.064472 116.440239
v 124.695770 60.064480 147.746658
v 134.955002 60.064480 138.031204
v 113.739197 60.064480 156.668259
v -110.643150 60.064480 158.953262
v -121.779137 60.064480 150.256622
v -132.234085 60.064480 140.752121
v -141.949539 60.064480 130.492889
v -150.871140 60.064472 119.536301
v -236.209778 60.064465 42.812054
v 234.522537 0.000006 39.031181
v 234.522537 60.064465 39.031174
v 137.801941 42.835915 78.751053
v 137.801941 42.835907 62.539059
v 137.801941 42.835907 46.327065
v 121.589943 42.835915 78.751053
v 121.589943 42.835907 62.539059
v 121.589943 42.835907 46.327065
v 105.377953 42.835915 78.751053
v 105.377953 42.835907 62.539059
v 105.377953 42.835907 46.327065
v 72.953964 38.543308 127.387032
v 72.953964 38.543301 111.175041
v 56.741974 38.543308 143.599045
v 56.741974 38.543308 127.387032
v 56.741974 38.543301 111.175041
v 40.529980 38.543308 143.599045
v 40.529980 38.543308 127.387032
v 40.529980 38.543301 111.175041
v -107.752167 44.512348 60.164864
v -102.020355 44.512348 46.327065
v -107.752167 44.512348 32.489262
v -121.589966 44.512348 65.896683
v -121.589958 44.512348 46.327065
v -121.589966 44.512348 26.757458
v -135.427765 44.512348 60.164867
v -141.159576 44.512348 46.327065
v -135.427765 44.512348 32.489265
v -75.328163 53.011955 125.012825
v -69.596359 53.011955 111.175018
v -75.328171 53.011955 97.337219
v -89.165962 53.011963 130.744644
v -89.165970 53.011955 111.175026
v -89.165977 53.011955 91.605415
v -103.003769 53.011955 125.012833
v -108.735580 53.011955 111.175034
v -103.003777 53.011955 97.337227
v -284.168793 0.000004 28.862583
v -284.168793 0.000006 42.812061
v 234.522537 60.064461 13.713751
v 234.522537 60.064468 31.390556
v -236.209778 60.064468 36.184311
v -236.209778 60.064461 18.534477
v 229.412018 60.064468 66.241325
v 224.363434 60.064476 83.220398
v 218.060135 60.064476 99.774712
v 210.537323 60.064476 115.811707
v 201.837097 60.064484 131.241684
v 128.058640 60.064491 206.538254
v 112.809067 60.064491 215.550888
v 96.928612 60.064491 223.398712
v 80.506088 60.064499 230.037842
v 63.633347 60.064499 235.431152
v 46.404739 60.064499 238.018661
v 28.916615 60.064499 238.018661
v 11.266778 60.064499 238.018661
v -6.446067 60.064499 238.018661
v -24.122860 60.064499 238.018661
v -41.664749 60.064499 238.018661
v -58.973633 60.064499 236.679733
v -75.952713 60.064499 231.631149
v -92.507034 60.064491 225.327835
v -108.544029 60.064491 217.805038
v -123.973991 60.064491 209.104813
v -199.270538 60.064484 135.326355
v -208.283173 60.064476 120.076759
v -216.131012 60.064476 104.196304
v -222.770142 60.064476 87.773781
v -224.808655 60.064468 70.901039
v 181.105392 60.064484 159.939255
v 192.008148 60.064484 145.978333
v 156.328079 60.064491 185.226410
v 169.189819 60.064484 173.046387
v 142.592087 60.064491 196.411209
v -138.710648 60.064491 199.275864
v -152.671555 60.064491 188.373093
v -165.778671 60.064484 176.457535
v -177.958710 60.064484 163.595779
v -189.143494 60.064484 149.859787
v -185.279785 60.064465 28.862576
v -185.279785 60.064457 14.784105
v 185.995178 60.064457 10.938833
v 185.995178 60.064457 25.038809
v -227.620453 22.668011 192.399857
v -275.579468 22.668011 192.399857
v 46.404739 60.064507 307.539032
v 28.916615 60.064507 307.539032
v 11.266778 60.064507 307.539032
v -6.446067 60.064507 307.539032
v -24.122860 60.064507 307.539032
v -41.664749 60.064507 307.539032
v -41.664749 60.064499 255.187592
v -24.122860 60.064499 255.187592
v -6.446067 60.064499 255.187592
v 11.266778 60.064499 255.187592
v 28.916615 60.064499 255.187592
v 46.404739 60.064499 255.187592
v -184.811142 22.668022 289.421448
v -184.811142 22.668015 237.070007
v -227.620453 22.668011 207.215607
v -275.579468 22.668011 207.215607
v -201.350006 22.668022 289.421448
v -201.350006 22.668015 237.070007
v -227.620453 120.983887 192.399841
v -41.664749 120.983894 255.187576
v -184.811142 120.983887 237.069992
v -227.620453 120.983887 207.215591
v -201.350006 120.983887 237.069992
v -284.168793 149.369156 42.812038
v -275.579468 149.369141 192.399857
v -41.664749 149.369156 307.539032
v -184.811142 149.369141 289.421448
v -275.579468 149.369141 207.215607
v -201.350006 149.369141 289.421448
v -236.209778 120.983887 42.812050
v 227.646881 60.064449 -39.031189
v 229.412018 120.983894 66.241325
v 224.363434 120.983894 83.220398
v 218.060135 120.983894 99.774712
v 210.537323 120.983879 115.811707
v 201.837097 120.983879 131.241684
v 128.058640 120.983887 206.538254
v 112.809067 120.983887 215.550888
v 96.928612 120.983887 223.398712
v 80.506088 120.983887 230.037842
v 63.633347 120.983887 235.431152
v 46.404739 120.983887 238.018661
v -41.664749 120.983887 238.018646
v -58.973633 120.983887 236.679718
v -75.952713 120.983887 231.631134
v -92.507034 120.983887 225.327820
v -108.544029 120.983887 217.805023
v -123.973991 120.983887 209.104797
v -199.270538 120.983879 135.326340
v -208.283173 120.983879 120.076759
v -216.131012 120.983879 104.196304
v -222.770142 120.983894 87.773781
v -224.808655 120.983894 70.901039
v 181.105392 120.983887 159.939255
v 192.008148 120.983879 145.978333
v 156.328079 120.983887 185.226410
v 169.189819 120.983887 173.046387
v 142.592087 120.983887 196.411209
v -138.710648 120.983887 199.275848
v -152.671555 120.983887 188.373077
v -165.778671 120.983887 176.457520
v -177.958710 120.983887 163.595764
v -189.143494 120.983879 149.859772
v 185.995163 -0.000002 -10.938843
v 185.995163 -0.000004 -25.038816
v 185.995163 -0.000006 -39.031181
v 182.991501 -0.000008 -52.837688
v 178.964478 -0.000010 -66.381126
v 173.936615 -0.000012 -79.585747
v 167.936020 -0.000014 -92.377724
v 160.996246 -0.000016 -104.685501
v 102.146538 -0.000024 -164.746140
v 89.982643 -0.000026 -171.935104
v 77.315529 -0.000026 -178.194962
v 64.216034 -0.000028 -183.490692
v 50.757416 -0.000028 -187.792694
v 37.014942 -0.000028 -191.076904
v 23.065464 -0.000030 -193.324966
v 8.986995 -0.000030 -194.524277
v -5.141733 -0.000030 -194.668152
v -19.241705 -0.000030 -193.755798
v -33.234070 -0.000028 -191.792282
v -47.040577 -0.000028 -188.788620
v -60.584015 -0.000028 -184.761597
v -73.788643 -0.000028 -179.733734
v -86.580620 -0.000026 -173.733139
v -98.888397 -0.000026 -166.793365
v -158.949020 -0.000016 -107.943657
v -166.137985 -0.000014 -95.779762
v -172.397842 -0.000012 -83.112648
v -177.693573 -0.000010 -70.013153
v -181.995575 -0.000008 -56.554535
v -185.279785 -0.000006 -42.812061
v -185.279785 -0.000004 -28.862583
v -185.279785 -0.000002 -14.784115
v 144.459503 -0.000020 -127.576241
v 153.156143 -0.000018 -116.440254
v 154.013931 -0.000016 -111.175041
v 154.013931 -0.000014 -94.963043
v 154.013931 -0.000012 -78.751053
v 154.013931 -0.000010 -62.539066
v 154.013931 -0.000006 -46.327072
v 154.013931 -0.000004 -30.115082
v 154.013931 -0.000002 -13.903085
v 124.695770 -0.000022 -147.746658
v 134.955002 -0.000020 -138.031204
v 137.801941 -0.000020 -127.387032
v 137.801941 -0.000016 -111.175041
v 137.801941 -0.000014 -94.963043
v 137.801941 -0.000012 -78.751053
v 137.801941 -0.000010 -62.539066
v 137.801941 -0.000006 -46.327072
v 137.801941 -0.000004 -30.115082
v 137.801941 -0.000002 -13.903085
v 113.739197 -0.000024 -156.668259
v 121.589943 -0.000022 -143.599045
v 121.589943 -0.000020 -127.387032
v 121.589943 -0.000016 -111.175041
v 121.589943 -0.000014 -94.963043
v 121.589943 -0.000012 -78.751053
v 72.953964 38.543262 -143.599045
v 121.589943 -0.000006 -46.327072
v 121.589943 -0.000004 -30.115082
v 121.589943 -0.000002 -13.903085
v 105.377953 -0.000024 -159.811035
v 105.377953 -0.000022 -143.599045
v 105.377953 -0.000020 -127.387032
v 105.377953 -0.000016 -111.175041
v 105.377953 -0.000014 -94.963043
v 105.377953 -0.000012 -78.751053
v 105.377953 -0.000010 -62.539066
v 105.377953 -0.000006 -46.327072
v 105.377953 -0.000004 -30.115082
v 105.377953 -0.000002 -13.903085
v 89.165955 -0.000024 -159.811035
v 89.165955 -0.000022 -143.599045
v 89.165955 -0.000020 -127.387032
v 89.165955 -0.000016 -111.175041
v 89.165955 -0.000014 -94.963043
v 89.165955 -0.000012 -78.751053
v 89.165955 -0.000010 -62.539066
v 89.165955 -0.000006 -46.327072
v 89.165955 -0.000004 -30.115082
v 89.165955 -0.000002 -13.903085
v 72.953964 -0.000024 -159.811035
v 72.953964 -0.000022 -143.599045
v 72.953964 -0.000020 -127.387032
v 72.953964 -0.000016 -111.175041
v 72.953964 -0.000014 -94.963043
v 57.955978 -0.000010 -66.529770
v 67.621620 -0.000008 -55.543148
v 75.232605 -0.000006 -43.045025
v 80.557693 -0.000004 -29.415140
v 83.435074 -0.000002 -15.067633
v 56.741974 -0.000024 -159.811035
v 56.741974 -0.000022 -143.599045
v 56.741974 -0.000016 -111.175041
v 56.741974 -0.000014 -94.963043
v 46.529377 -0.000012 -75.671051
v 48.980888 -2.187015 -48.279552
v 58.059242 -2.187013 -36.175095
v 64.216469 -2.187011 -22.353987
v 67.143867 -2.187007 -7.509289
v 40.529980 -0.000024 -159.811035
v 40.529980 -0.000022 -143.599045
v 40.529980 -0.000020 -127.387032
v 40.529980 -0.000016 -111.175041
v 40.529980 -0.000014 -94.963043
v 33.689003 -0.000012 -82.689255
v 37.436653 -2.187015 -58.060410
v 24.317984 -0.000024 -159.811035
v 24.317984 -0.000022 -143.599045
v 24.317984 -0.000020 -127.387032
v 24.317984 -0.000016 -111.175041
v 24.317984 -0.000014 -94.963043
v 19.825006 -0.000014 -87.371124
v 24.005409 -2.187017 -65.027206
v 8.105993 -0.000024 -159.811035
v 8.105994 -0.000022 -143.599045
v 8.105995 -0.000020 -127.387032
v 8.105996 -0.000016 -111.175041
v 8.105997 -0.000014 -94.963043
v 5.358639 -0.000014 -89.574409
v 9.360653 -2.187017 -68.830605
v -8.106003 -0.000024 -159.811035
v -8.106002 -0.000022 -143.599045
v -8.106001 -0.000020 -127.387032
v -8.106000 -0.000016 -111.175041
v -8.105999 -0.000014 -94.963043
v -9.270551 -0.000014 -89.232162
v -5.763261 -2.187017 -69.279884
v -24.317999 -0.000024 -159.811035
v -24.317999 -0.000022 -143.599045
v -24.317999 -0.000020 -127.387032
v -24.317999 -0.000016 -111.175041
v -24.317999 -0.000014 -94.963043
v -23.618057 -0.000014 -86.354782
v -20.607952 -2.187017 -66.352493
v -40.529995 -0.000024 -159.811035
v -40.529995 -0.000022 -143.599045
v -40.529995 -0.000020 -127.387032
v -40.529995 -0.000016 -111.175041
v -40.529995 -0.000014 -94.963043
v -37.247944 -0.000012 -81.029694
v -34.429062 -2.187016 -60.195251
v -56.741989 -0.000024 -159.811035
v -56.741989 -0.000022 -143.599045
v -56.741989 -0.000020 -127.387032
v -56.741989 -0.000016 -111.175041
v -56.741989 -0.000014 -94.963043
v -49.746067 -0.000012 -73.418709
v -42.972500 -2.187915 -55.545883
v -50.085556 -2.187169 -46.963223
v -59.910957 -2.187011 -32.638855
v -67.084572 -2.187009 -11.496662
v -72.953979 -0.000024 -159.811035
v -72.953979 -0.000022 -143.599045
v -75.328163 -0.000018 -125.012840
v -69.596359 -0.000016 -111.175034
v -75.328171 -0.000014 -97.337234
v -60.732685 -0.000010 -63.753067
v -69.873962 -0.000008 -52.326466
v -76.892166 -0.000006 -39.486092
v -81.574036 -0.000004 -25.622097
v -83.777321 -0.000002 -11.155728
v -89.165970 -0.000024 -159.811035
v -89.165970 -0.000022 -143.599045
v -89.165962 -0.000020 -130.744644
v -284.168793 -0.000002 -14.784114
v -89.165977 -0.000014 -91.605431
v -89.165970 -0.000012 -78.751053
v -89.165970 -0.000010 -62.539066
v -89.165970 -0.000006 -46.327072
v -89.165970 -0.000004 -30.115082
v -89.165970 -0.000002 -13.903085
v -105.377968 -0.000024 -159.811035
v -105.377968 -0.000022 -143.599045
v -103.003769 -0.000018 -125.012848
v -108.735580 -0.000016 -111.175049
v -103.003777 -0.000014 -97.337242
v -105.377968 -0.000012 -78.751053
v -107.752167 -0.000010 -60.164871
v -102.020355 -0.000006 -46.327072
v -107.752167 -0.000004 -32.489269
v -105.377968 -0.000002 -13.903085
v -110.643150 -0.000024 -158.953262
v -121.589958 -0.000022 -143.599045
v -121.589958 -0.000020 -127.387032
v -121.589958 -0.000016 -111.175041
v -121.589958 -0.000014 -94.963043
v -121.589958 -0.000012 -78.751053
v -121.589966 -0.000010 -65.896683
v -121.589966 -0.000004 -26.757465
v -121.589958 -0.000002 -13.903085
v -121.779137 -0.000022 -150.256622
v -132.234085 -0.000022 -140.752121
v -137.801956 -0.000020 -127.387032
v -137.801956 -0.000016 -111.175041
v -137.801956 -0.000014 -94.963043
v -137.801956 -0.000012 -78.751053
v -135.427765 -0.000010 -60.164875
v -141.159576 -0.000006 -46.327072
v -135.427765 -0.000004 -32.489273
v -137.801956 -0.000002 -13.903085
v -141.949539 -0.000020 -130.492889
v -150.871140 -0.000018 -119.536316
v -154.013947 -0.000016 -111.175041
v -154.013947 -0.000014 -94.963043
v -154.013947 -0.000012 -78.751053
v -154.013947 -0.000010 -62.539066
v -154.013947 -0.000006 -46.327072
v -154.013947 -0.000004 -30.115082
v -154.013947 -0.000002 -13.903085
v 42.546703 -14.494928 -45.888954
v 50.401253 -16.180201 -35.416233
v 55.728462 -16.180201 -23.458273
v 47.563522 -13.998106 -10.531105
v 32.558693 -16.180204 -54.351303
v 22.679718 -21.587135 -26.718065
v 28.034630 -21.587135 -18.685692
v 30.645321 -21.587132 -9.391694
v 20.938046 -16.180204 -60.378941
v 15.104755 -21.587135 -32.702541
v 18.078766 -21.587137 -23.875860
v 18.078766 -21.587133 -11.823340
v 8.267477 -16.180208 -63.669617
v 6.051232 -21.587135 -36.053329
v 6.026250 -21.587137 -23.875860
v 6.026250 -21.587133 -11.823340
v -4.817658 -16.180208 -64.058319
v -3.594632 -21.587135 -36.442421
v -6.026271 -21.587137 -23.875860
v -6.026271 -21.587133 -11.823340
v -17.661215 -16.180204 -61.525558
v -12.888630 -21.587135 -33.831734
v -18.078794 -21.587137 -23.875860
v -18.078794 -21.587133 -11.823340
v -28.965223 -16.213282 -55.610462
v -20.920994 -21.587135 -28.476816
v -26.905472 -21.587135 -20.901848
v -30.256260 -21.587132 -11.848326
v -35.197044 -15.279976 -49.490932
v -39.087322 -14.517857 -41.935997
v -46.842396 -14.299480 -30.689552
v -48.844269 -12.908846 -13.768269
v 234.522537 -0.000004 -25.038816
v 234.522537 -0.000002 -10.938843
v 185.995178 60.064449 -39.031189
v 182.991501 60.064449 -52.837696
v 178.964478 60.064449 -66.381142
v 173.936615 60.064442 -79.585762
v 167.936020 60.064442 -92.377739
v 160.996246 60.064442 -104.685516
v 102.146538 60.064434 -164.746140
v 89.982643 60.064434 -171.935104
v 77.315529 60.064426 -178.194962
v 64.216034 60.064426 -183.490692
v 50.757416 60.064426 -187.792694
v 37.014942 60.064426 -191.076904
v 23.065464 60.064426 -193.324966
v 8.986995 60.064426 -194.524277
v -5.141733 60.064426 -194.668152
v -19.241705 60.064426 -193.755798
v -33.234070 60.064426 -191.792282
v -47.040577 60.064426 -188.788620
v -60.584015 60.064426 -184.761597
v -73.788643 60.064426 -179.733734
v -86.580620 60.064434 -173.733139
v -98.888397 60.064434 -166.793365
v -158.949020 60.064442 -107.943672
v -166.137985 60.064442 -95.779778
v -172.397842 60.064442 -83.112663
v -177.693573 60.064449 -70.013168
v -181.995575 60.064449 -56.554543
v -185.279785 60.064449 -42.812069
v -236.209778 -0.000002 -14.784114
v -236.209778 -0.000004 -28.862583
v -236.209778 -0.000006 -42.812061
v 144.459503 60.064434 -127.576256
v 153.156143 60.064442 -116.440269
v 124.695770 60.064434 -147.746658
v 134.955002 60.064434 -138.031204
v 113.739197 60.064434 -156.668259
v -110.643150 60.064434 -158.953262
v -121.779137 60.064434 -150.256622
v -132.234085 60.064434 -140.752121
v -141.949539 60.064434 -130.492889
v -150.871140 60.064442 -119.536331
v -236.209778 60.064449 -42.812069
v 234.522537 -0.000006 -39.031181
v 234.522537 60.064449 -39.031189
v 137.801941 42.835884 -78.751053
v 137.801941 42.835892 -62.539074
v 137.801941 42.835892 -46.327080
v 121.589943 42.835884 -78.751053
v 121.589943 42.835892 -62.539074
v 121.589943 42.835892 -46.327080
v 105.377953 42.835884 -78.751053
v 105.377953 42.835892 -62.539074
v 105.377953 42.835892 -46.327080
v 72.953964 38.543262 -127.387032
v 72.953964 38.543270 -111.175041
v 56.741974 38.543262 -143.599045
v 56.741974 38.543262 -127.387032
v 56.741974 38.543270 -111.175041
v 40.529980 38.543262 -143.599045
v 40.529980 38.543262 -127.387032
v 40.529980 38.543270 -111.175041
v -107.752167 44.512333 -60.164879
v -102.020355 44.512333 -46.327080
v -107.752167 44.512333 -32.489277
v -121.589966 44.512333 -65.896683
v -121.589958 44.512333 -46.327080
v -121.589966 44.512333 -26.757473
v -135.427765 44.512333 -60.164883
v -141.159576 44.512333 -46.327080
v -135.427765 44.512333 -32.489281
v -75.328163 53.011925 -125.012856
v -69.596359 53.011925 -111.175049
v -75.328171 53.011925 -97.337250
v -89.165962 53.011917 -130.744644
v -89.165970 53.011925 -111.175056
v -89.165977 53.011925 -91.605446
v -103.003769 53.011925 -125.012863
v -108.735580 53.011925 -111.175064
v -103.003777 53.011925 -97.337257
v -284.168793 -0.000004 -28.862583
v -284.168793 -0.000006 -42.812061
v 234.522537 60.064461 -13.713770
v 234.522537 60.064453 -31.390572
v -236.209778 60.064453 -36.184326
v -236.209778 60.064461 -18.534492
v 229.412018 60.064453 -66.241356
v 224.363434 60.064445 -83.220428
v 218.060135 60.064445 -99.774742
v 210.537323 60.064445 -115.811737
v 201.837097 60.064438 -131.241684
v 128.058640 60.064430 -206.538254
v 112.809067 60.064430 -215.550888
v 96.928612 60.064430 -223.398712
v 80.506088 60.064423 -230.037842
v 63.633347 60.064423 -235.431152
v 46.404739 60.064423 -238.018661
v 28.916615 60.064423 -238.018661
v 11.266778 60.064423 -238.018661
v -6.446067 60.064423 -238.018661
v -24.122860 60.064423 -238.018661
v -41.664749 60.064423 -238.018661
v -58.973633 60.064423 -236.679733
v -75.952713 60.064423 -231.631149
v -92.507034 60.064430 -225.327835
v -108.544029 60.064430 -217.805038
v -123.973991 60.064430 -209.104813
v -199.270538 60.064438 -135.326355
v -208.283173 60.064445 -120.076790
v -216.131012 60.064445 -104.196335
v -222.770142 60.064445 -87.773811
v -224.808655 60.064453 -70.901070
v 181.105392 60.064438 -159.939255
v 192.008148 60.064438 -145.978333
v 156.328079 60.064430 -185.226410
v 169.189819 60.064438 -173.046387
v 142.592087 60.064430 -196.411209
v -138.710648 60.064430 -199.275864
v -152.671555 60.064430 -188.373093
v -165.778671 60.064438 -176.457535
v -177.958710 60.064438 -163.595779
v -189.143494 60.064438 -149.859787
v -185.279785 60.064449 -28.862591
v -185.279785 60.064457 -14.784124
v 185.995178 60.064457 -10.938852
v 185.995178 60.064457 -25.038824
v -227.620453 22.667950 -192.399857
v -275.579468 22.667950 -192.399857
v 46.404739 60.064415 -307.539032
v 28.916615 60.064415 -307.539032
v 11.266778 60.064415 -307.539032
v -6.446067 60.064415 -307.539032
v -24.122860 60.064415 -307.539032
v -41.664749 60.064415 -307.539032
v -41.664749 60.064423 -255.187592
v -24.122860 60.064423 -255.187592
v -6.446067 60.064423 -255.187592
v 11.266778 60.064423 -255.187592
v 28.916615 60.064423 -255.187592
v 46.404739 60.064423 -255.187592
v -184.811142 22.667938 -289.421448
v -184.811142 22.667946 -237.070007
v -227.620453 22.667950 -207.215607
v -275.579468 22.667950 -207.215607
v -201.350006 22.667938 -289.421448
v -201.350006 22.667946 -237.070007
v -227.620453 120.983887 -192.399872
v -41.664749 120.983879 -255.187607
v -184.811142 120.983887 -237.070023
v -227.620453 120.983887 -207.215622
v -201.350006 120.983887 -237.070023
v -284.168793 149.369156 -42.812077
v -275.579468 149.369141 -192.399857
v -41.664749 149.369156 -307.539032
v -184.811142 149.369141 -289.421448
v -275.579468 149.369141 -207.215607
v -201.350006 149.369141 -289.421448
v -236.209778 120.983887 -42.812080
v 227.646881 60.064465 39.031174
v 229.412018 120.983879 -66.241356
v 224.363434 120.983879 -83.220428
v 218.060135 120.983879 -99.774742
v 210.537323 120.983894 -115.811737
v 201.837097 120.983894 -131.241684
v 128.058640 120.983887 -206.538254
v 112.809067 120.983887 -215.550888
v 96.928612 120.983887 -223.398712
v 80.506088 120.983887 -230.037842
v 63.633347 120.983887 -235.431152
v 46.404739 120.983887 -238.018661
v -41.664749 120.983887 -238.018677
v -58.973633 120.983887 -236.679749
v -75.952713 120.983887 -231.631165
v -92.507034 120.983887 -225.327850
v -108.544029 120.983887 -217.805054
v -123.973991 120.983887 -209.104828
v -199.270538 120.983894 -135.326370
v -208.283173 120.983894 -120.076790
v -216.131012 120.983894 -104.196335
v -222.770142 120.983879 -87.773811
v -224.808655 120.983879 -70.901070
v 181.105392 120.983887 -159.939255
v 192.008148 120.983894 -145.978333
v 156.328079 120.983887 -185.226410
v 169.189819 120.983887 -173.046387
v 142.592087 120.983887 -196.411209
v -138.710648 120.983887 -199.275879
v -152.671555 120.983887 -188.373108
v -165.778671 120.983887 -176.457550
v -177.958710 120.983887 -163.595795
v -189.143494 120.983894 -149.859802
v 185.995178 53.697186 -39.031189
v 234.522537 53.697186 -39.031189
v 185.995178 53.697201 39.031174
v 234.522537 53.697201 39.031174
v -185.279785 53.697186 -42.812069
v -236.209778 53.697186 -42.812069
v -185.279785 53.697201 42.812054
v -236.209778 53.697201 42.812054
v -227.538086 60.064465 42.812054
v -227.538086 60.064449 -42.812069
v -227.538086 120.983887 -42.812069
v -227.538086 120.983887 42.812054
v 286.813232 0.000000 0.000000
v 286.813232 0.000004 25.038816
v 286.813232 0.000002 10.938843
v 286.813232 0.000006 39.031181
v 286.813232 -0.000004 -25.038816
v 286.813232 -0.000002 -10.938843
v 286.813232 -0.000006 -39.031181
v 234.522537 22.667950 -192.399857
v 286.813232 22.667950 -192.399857
v 234.522537 22.667950 -207.215607
v 286.813232 22.667950 -207.215607
v 189.827133 22.667940 -243.131729
v 189.827133 22.667940 -295.422394
v 175.218460 22.667940 -243.131729
v 175.218460 22.667940 -295.422394
v 46.404739 149.369156 -307.539032
v 286.813232 149.369156 -39.031185
v 286.813232 149.369141 -192.399841
v 286.813232 149.369141 -207.215591
v 189.827133 149.369141 -295.422394
v 175.218460 149.369141 -295.422394
v 234.522537 22.668011 166.752747
v 286.813232 22.668011 166.752747
v 234.522537 22.668009 184.283157
v 286.813232 22.668009 184.283157
v 198.059280 22.668009 227.798111
v 198.059280 22.668011 298.541840
v 180.528870 22.668009 227.798111
v 180.528870 22.668011 298.541840
v 46.404739 149.369156 307.539032
v 286.813232 149.369156 39.031178
v 286.813232 149.369141 166.752762
v 286.813232 149.369141 184.283173
v 198.059280 149.369141 298.541840
v 180.528870 149.369141 298.541840
v 234.522537 120.983887 39.031181
v 46.404739 120.983894 255.187607
v 234.522537 120.983887 -39.031181
v 46.404739 120.983879 -255.187576
v 234.522537 120.983887 -192.399841
v 234.522537 120.983887 -207.215591
v 189.827133 120.983887 -243.131714
v 175.218460 120.983887 -243.131714
v 234.522537 120.983887 166.752762
v 234.522537 120.983887 184.283173
v 198.059280 120.983887 227.798126
v 180.528870 120.983887 227.798126
v 227.646881 120.983887 -39.031189
v 227.646881 120.983887 39.031174
v -227.620453 69.181396 192.399857
v -227.620453 60.421776 192.399857
v -227.620453 65.412933 -192.399857
v -227.620453 69.877670 -192.399857
vn -0.6095 0.6988 -0.3744
vn -0.6358 0.6988 -0.3278
vn -0.0000 1.0000 -0.0000
vn -0.5799 0.6988 -0.4189
vn -0.6585 0.6988 -0.2794
vn -0.6776 0.6988 -0.2294
vn -0.6928 0.6988 -0.1781
vn -0.2998 0.8785 -0.3720
vn -0.5469 0.6988 -0.4611
vn -0.5109 0.6988 -0.5006
vn 0.3015 0.9045 0.3015
vn 0.7071 0.7071 -0.0000
vn 0.3015 0.9045 -0.3015
vn -0.4721 0.6988 -0.5374
vn -0.4306 0.6988 -0.5712
vn -0.0000 0.7071 0.7071
vn -0.3015 0.9045 0.3015
vn -0.5774 0.5774 0.5774
vn -0.7071 0.7071 -0.0000
vn 0.5774 0.5774 0.5774
vn -0.0000 0.7071 -0.7071
vn -0.3867 0.6988 -0.6018
vn -0.3407 0.6988 -0.6290
vn -0.3015 0.9045 -0.3015
vn -0.2927 0.6988 -0.6527
vn -0.2431 0.6988 -0.6727
vn -0.0366 0.9986 -0.0383
vn -0.0417 0.9986 -0.0339
vn -0.0489 0.9985 -0.0260
vn -0.0548 0.9984 -0.0171
vn -0.0593 0.9982 -0.0069
vn -0.0642 0.9979 -0.0000
vn -0.1922 0.6988 -0.6890
vn -0.0316 0.9986 -0.0418
vn -0.4069 0.8317 -0.3779
vn -0.4725 0.8375 -0.2746
vn -0.4416 0.8960 -0.0463
vn -0.3463 0.9373 0.0387
vn -0.3371 0.9415 -0.0000
vn -0.1401 0.6988 -0.7015
vn 0.5774 0.5774 -0.5774
vn -0.5774 0.5774 -0.5774
vn -0.0231 0.9987 -0.0459
vn -0.3243 0.8221 -0.4680
vn -0.0873 0.6988 -0.7100
vn -0.0138 0.9987 -0.0488
vn -0.2099 0.8119 -0.5447
vn -0.0340 0.6988 -0.7145
vn -0.0044 0.9987 -0.0502
vn -0.0828 0.8090 -0.5819
vn 0.0195 0.6988 -0.7151
vn 0.0051 0.9987 -0.0502
vn 0.0502 0.8093 -0.5852
vn -0.4856 0.7397 -0.4658
vn -0.3680 0.7626 -0.5321
vn -0.2382 0.7507 -0.6163
vn -0.0949 0.7471 -0.6579
vn 0.0728 0.6988 -0.7116
vn 0.0144 0.9987 -0.0488
vn 0.1840 0.8172 -0.5462
vn -0.4627 0.8865 -0.0000
vn -0.4535 0.8854 0.1018
vn 0.0545 0.7475 -0.6621
vn 0.2082 0.7511 -0.6265
vn 0.3232 0.9456 -0.0360
vn 0.4805 0.8758 -0.0461
vn 0.4658 0.8849 -0.0000
vn 0.3218 0.9468 -0.0000
vn 0.2903 0.8333 -0.4704
vn 0.3556 0.7785 -0.5171
vn 0.4748 0.8028 -0.3606
vn 0.3369 0.8882 -0.3123
vn -0.5864 0.8075 -0.0641
vn 0.3476 0.9270 -0.1408
vn 0.4801 0.8531 -0.2042
vn -0.5227 0.7839 -0.3352
vn 0.1258 0.6988 -0.7042
vn 0.0227 0.9986 -0.0471
vn 0.3725 0.8956 -0.2430
vn 0.4568 0.8461 -0.2746
vn 0.1781 0.6988 -0.6928
vn 0.0324 0.9985 -0.0431
vn 0.2294 0.6988 -0.6776
vn 0.4203 0.8042 0.4203
vn 0.5944 0.8042 -0.0000
vn 0.4203 0.8042 -0.4203
vn 0.0402 0.9985 -0.0383
vn 0.0431 0.9986 -0.0315
vn 0.0485 0.9985 -0.0267
vn 0.0544 0.9984 -0.0183
vn 0.0597 0.9982 -0.0072
vn 0.0679 0.9977 -0.0000
vn 0.2794 0.6988 -0.6585
vn -0.0000 0.8042 0.5944
vn 0.5490 0.6303 0.5490
vn -0.0000 0.6302 0.7764
vn -0.5490 0.6303 0.5490
vn -0.4203 0.8042 0.4203
vn -0.0000 0.8042 -0.5944
vn 0.3278 0.6988 -0.6358
vn -0.0000 0.6302 -0.7764
vn 0.5490 0.6303 -0.5490
vn -0.4203 0.8042 -0.4203
vn -0.5490 0.6303 -0.5490
vn 0.4189 0.6988 -0.5799
vn 0.3744 0.6988 -0.6095
vn -0.5944 0.8042 -0.0000
vn 0.5006 0.6988 -0.5109
vn 0.4611 0.6988 -0.5469
vn 0.5712 0.6988 -0.4306
vn 0.5374 0.6988 -0.4721
vn 0.6290 0.6988 -0.3407
vn 0.6018 0.6988 -0.3867
vn 0.6527 0.6988 -0.2927
vn 0.6727 0.6988 -0.2431
vn 0.6890 0.6988 -0.1922
vn 0.2989 0.8759 -0.3787
vn -0.0818 0.9937 -0.0762
vn -0.1243 0.9922 0.0105
vn -0.1963 0.9792 0.0517
vn -0.2039 0.9790 -0.0000
vn -0.0458 0.9944 -0.0947
vn -0.0182 0.9945 -0.1036
vn 0.0108 0.9945 -0.1046
vn 0.0411 0.9943 -0.0979
vn 0.1118 0.9899 -0.0874
vn 0.1743 0.9830 -0.0574
vn 0.2232 0.9747 -0.0115
vn 0.2208 0.9753 -0.0000
vn -0.2374 0.7156 -0.6569
vn -0.2858 0.7156 -0.6373
vn 0.5876 0.7156 -0.3776
vn 0.5578 0.7156 -0.4205
vn -0.1876 0.7156 -0.6728
vn -0.3776 0.7156 -0.5876
vn -0.4205 0.7156 -0.5578
vn -0.1368 0.7156 -0.6850
vn -0.0853 0.7156 -0.6933
vn -0.0332 0.7156 -0.6977
vn 0.0190 0.7156 -0.6982
vn -0.4989 0.7156 -0.4889
vn -0.5341 0.7156 -0.4502
vn 0.0711 0.7156 -0.6949
vn 0.4889 0.7156 -0.4989
vn 0.4502 0.7156 -0.5341
vn 0.1229 0.7156 -0.6876
vn -0.4610 0.7156 -0.5248
vn 0.1739 0.7156 -0.6765
vn 0.2240 0.7156 -0.6616
vn 0.5248 0.7156 -0.4610
vn 0.2728 0.7156 -0.6430
vn 0.3201 0.7156 -0.6208
vn 0.3656 0.7156 -0.5952
vn 0.4090 0.7156 -0.5662
vn 0.6142 0.7156 -0.3327
vn 0.6373 0.7156 -0.2858
vn 0.6569 0.7156 -0.2374
vn -0.5662 0.7156 -0.4090
vn -0.5952 0.7156 -0.3656
vn 0.6728 0.7156 -0.1876
vn 0.5055 -0.8269 0.2464
vn 0.6740 0.7344 -0.0794
vn -0.1998 0.9205 -0.3358
vn 0.2669 0.8968 -0.3530
vn -0.5646 0.6705 -0.4813
vn -0.8892 0.4475 -0.0956
vn -0.2711 0.2012 -0.9413
vn -0.6616 0.7156 -0.2240
vn -0.6430 0.7156 -0.2728
vn -0.6208 0.7156 -0.3201
vn -0.3327 0.7156 -0.6142
vn -0.6002 -0.3396 -0.7242
vn -0.5072 -0.7545 -0.4166
vn 0.7764 0.6302 -0.0000
vn -0.7764 0.6302 -0.0000
vn 0.4179 0.9039 -0.0908
vn 0.6740 0.7344 0.0794
vn 0.6728 0.7156 0.1876
vn 0.7100 0.7011 0.0658
vn 0.3025 0.8930 0.3333
vn 0.7009 0.7079 -0.0879
vn 0.7112 0.6787 -0.1833
vn 0.4189 0.6988 -0.5798
vn 0.1328 0.6841 -0.7172
vn 0.3268 0.8954 -0.3025
vn -0.3505 0.8866 -0.3018
vn -0.1646 0.6895 -0.7053
vn -0.5798 0.6988 -0.4189
vn -0.7245 0.6876 -0.0479
vn -0.7745 0.6265 0.0872
vn -0.7562 0.6525 0.0495
vn -0.0420 0.9888 -0.1434
vn -0.5974 0.5740 0.5599
vn -0.9004 -0.4259 -0.0886
vn 0.8831 0.4395 -0.1641
vn -0.0516 0.9545 -0.2936
vn 0.2033 0.9282 -0.3117
vn 0.7169 0.6932 -0.0747
vn -0.8602 0.4668 0.2054
vn 0.1760 0.9206 0.3486
vn -0.0394 0.8535 -0.5196
vn 0.0793 0.8517 -0.5180
vn -0.1398 0.9281 0.3451
vn -0.1275 0.7127 0.6898
vn -0.0608 0.7431 -0.6664
vn 0.7214 0.6345 -0.2775
vn -0.5665 0.7958 0.2138
vn -0.2401 0.8126 0.5311
vn 0.3166 0.6261 -0.7125
vn -0.3215 0.6251 0.7113
vn -0.7223 0.6356 0.2726
vn -0.0453 0.6932 0.7193
vn -0.8351 0.5489 0.0364
vn -0.9987 0.0257 0.0430
vn 0.5428 0.5710 0.6159
vn 0.9996 -0.0000 -0.0287
vn 0.9333 -0.0000 -0.3590
vn 0.0629 -0.0000 -0.9980
vn 0.1256 -0.0000 -0.9921
vn 0.9984 -0.0000 -0.0573
vn 0.4061 -0.0000 -0.9138
vn -0.7349 0.6636 -0.1394
vn -0.5974 0.5740 -0.5599
vn -0.5469 0.6988 -0.4610
vn -0.6775 0.6988 -0.2294
vn -0.6143 0.5856 -0.5289
vn 0.7075 0.7043 -0.0593
vn 0.4610 0.6988 -0.5469
vn 0.5970 0.5815 -0.5526
vn -0.6095 0.6988 0.3744
vn -0.5799 0.6988 0.4189
vn -0.6358 0.6988 0.3278
vn -0.6585 0.6988 0.2794
vn -0.6776 0.6988 0.2294
vn -0.6928 0.6988 0.1781
vn -0.2998 0.8785 0.3720
vn -0.5469 0.6988 0.4611
vn -0.5109 0.6988 0.5006
vn -0.4721 0.6988 0.5374
vn -0.4306 0.6988 0.5712
vn -0.3867 0.6988 0.6018
vn -0.3407 0.6988 0.6290
vn -0.2927 0.6988 0.6527
vn -0.2431 0.6988 0.6727
vn -0.0366 0.9986 0.0383
vn -0.0417 0.9986 0.0339
vn -0.0489 0.9985 0.0260
vn -0.0548 0.9984 0.0171
vn -0.0593 0.9982 0.0069
vn -0.1922 0.6988 0.6890
vn -0.0316 0.9986 0.0418
vn -0.4069 0.8317 0.3779
vn -0.4725 0.8375 0.2746
vn -0.4416 0.8960 0.0463
vn -0.3463 0.9373 -0.0387
vn -0.1401 0.6988 0.7015
vn -0.0231 0.9987 0.0459
vn -0.3243 0.8221 0.4680
vn -0.0873 0.6988 0.7100
vn -0.0138 0.9987 0.0488
vn -0.2099 0.8119 0.5447
vn -0.0340 0.6988 0.7145
vn -0.0044 0.9987 0.0502
vn -0.0828 0.8090 0.5819
vn 0.0195 0.6988 0.7151
vn 0.0051 0.9987 0.0502
vn 0.0502 0.8093 0.5852
vn -0.3680 0.7626 0.5321
vn -0.4856 0.7397 0.4658
vn -0.0949 0.7471 0.6579
vn -0.2382 0.7507 0.6163
vn 0.0728 0.6988 0.7116
vn 0.0144 0.9987 0.0488
vn 0.1840 0.8172 0.5462
vn -0.4535 0.8854 -0.1018
vn 0.2082 0.7511 0.6265
vn 0.0545 0.7475 0.6621
vn 0.3232 0.9456 0.0360
vn 0.4805 0.8758 0.0461
vn 0.2903 0.8333 0.4704
vn 0.3369 0.8882 0.3123
vn 0.4748 0.8028 0.3606
vn 0.3556 0.7785 0.5171
vn -0.5864 0.8075 0.0641
vn 0.3476 0.9270 0.1408
vn 0.4801 0.8531 0.2042
vn -0.5227 0.7839 0.3352
vn 0.1258 0.6988 0.7042
vn 0.0227 0.9986 0.0471
vn 0.3725 0.8956 0.2430
vn 0.4568 0.8461 0.2746
vn 0.1781 0.6988 0.6928
vn 0.0324 0.9985 0.0431
vn 0.2294 0.6988 0.6776
vn 0.0402 0.9985 0.0383
vn 0.0431 0.9986 0.0315
vn 0.0485 0.9985 0.0267
vn 0.0544 0.9984 0.0183
vn 0.0597 0.9982 0.0072
vn 0.2794 0.6988 0.6585
vn 0.3278 0.6988 0.6358
vn 0.3744 0.6988 0.6095
vn 0.4189 0.6988 0.5799
vn 0.4611 0.6988 0.5469
vn 0.5006 0.6988 0.5109
vn 0.5374 0.6988 0.4721
vn 0.5712 0.6988 0.4306
vn 0.6018 0.6988 0.3867
vn 0.6290 0.6988 0.3407
vn 0.6527 0.6988 0.2927
vn 0.6727 0.6988 0.2431
vn 0.6890 0.6988 0.1922
vn 0.2989 0.8759 0.3787
vn -0.0818 0.9937 0.0762
vn -0.1243 0.9922 -0.0105
vn -0.1963 0.9792 -0.0517
vn -0.0458 0.9944 0.0947
vn -0.0182 0.9945 0.1036
vn 0.0108 0.9945 0.1046
vn 0.0411 0.9943 0.0979
vn 0.1118 0.9899 0.0874
vn 0.1743 0.9830 0.0574
vn 0.2232 0.9747 0.0115
vn -0.2858 0.7156 0.6373
vn -0.2374 0.7156 0.6569
vn 0.5578 0.7156 0.4205
vn 0.5876 0.7156 0.3776
vn -0.1876 0.7156 0.6728
vn -0.4205 0.7156 0.5578
vn -0.3776 0.7156 0.5876
vn -0.1368 0.7156 0.6850
vn -0.0853 0.7156 0.6933
vn -0.0332 0.7156 0.6977
vn 0.0190 0.7156 0.6982
vn -0.5341 0.7156 0.4502
vn -0.4989 0.7156 0.4889
vn 0.0711 0.7156 0.6949
vn 0.4502 0.7156 0.5341
vn 0.4889 0.7156 0.4989
vn 0.1229 0.7156 0.6876
vn -0.4610 0.7156 0.5248
vn 0.1739 0.7156 0.6765
vn 0.2240 0.7156 0.6616
vn 0.5248 0.7156 0.4610
vn 0.2728 0.7156 0.6430
vn 0.3201 0.7156 0.6208
vn 0.3656 0.7156 0.5952
vn 0.4090 0.7156 0.5662
vn 0.6142 0.7156 0.3327
vn 0.6373 0.7156 0.2858
vn 0.6569 0.7156 0.2374
vn -0.5952 0.7156 0.3656
vn -0.5662 0.7156 0.4090
vn 0.9006 0.0694 -0.4290
vn -0.2269 0.7601 0.6089
vn 0.2725 0.8984 0.3445
vn -0.9015 0.1367 -0.4107
vn -0.6919 0.6671 -0.2763
vn -0.8654 0.4491 0.2225
vn -0.6616 0.7156 0.2240
vn -0.6430 0.7156 0.2728
vn -0.6208 0.7156 0.3201
vn -0.3327 0.7156 0.6142
vn -0.1659 -0.9849 0.0490
vn -0.2790 0.0172 0.9601
vn 0.4179 0.9039 0.0908
vn 0.7036 0.7043 0.0944
vn 0.5462 0.5826 0.6019
vn 0.7112 0.6787 0.1833
vn 0.4189 0.6988 0.5798
vn 0.1328 0.6841 0.7172
vn 0.3268 0.8954 0.3025
vn -0.3505 0.8866 0.3018
vn -0.1646 0.6895 0.7053
vn -0.5798 0.6988 0.4189
vn -0.2813 0.9067 -0.3142
vn 0.2033 0.9282 0.3117
vn -0.5560 0.7945 -0.2442
vn 0.7169 0.6932 0.0747
vn 0.1760 0.9206 -0.3486
vn -0.0394 0.8535 0.5196
vn -0.1810 0.9165 -0.3569
vn 0.0679 0.8494 0.5234
vn -0.0608 0.7431 0.6664
vn -0.1275 0.7127 -0.6898
vn -0.5665 0.7958 -0.2138
vn 0.7214 0.6345 0.2775
vn 0.3166 0.6261 0.7125
vn -0.2401 0.8126 -0.5311
vn -0.7223 0.6356 -0.2726
vn -0.3215 0.6251 -0.7113
vn -0.0453 0.6932 -0.7193
vn -0.9099 -0.2494 0.3315
vn -0.6324 0.6844 -0.3628
vn 0.5428 0.5710 -0.6159
vn 0.9333 -0.0000 0.3590
vn 0.9996 -0.0000 0.0287
vn 0.1256 -0.0000 0.9921
vn 0.0629 -0.0000 0.9980
vn 0.9984 -0.0000 0.0573
vn 0.4061 -0.0000 0.9138
vn -0.5469 0.6988 0.4610
vn -0.6775 0.6988 0.2294
vn -0.6143 0.5856 0.5289
vn 0.4610 0.6988 0.5469
vn 0.5970 0.5815 0.5526
vn 0.1210 -0.9861 -0.1143
vn 0.5462 0.5826 -0.6019
vn 0.9875 0.1125 -0.1101
vn -0.4072 0.9098 -0.0801
vn -0.4138 0.9079 0.0667
vn -0.7240 0.6880 0.0506
vn 0.7240 0.6880 0.0506
vn -0.7129 0.6264 0.3153
vn 0.5181 0.8184 -0.2483
vn -0.2789 0.6342 0.7211
vn 0.2036 0.7900 -0.5783
vn 0.0800 0.7403 0.6675
vn 0.1278 0.7177 -0.6845
vn -1.0000 -0.0000 -0.0000
vn -0.3607 -0.0000 0.9327
vn -0.0469 -0.0000 0.9989
vn -0.9146 -0.0000 0.4045
vn -0.0936 -0.0000 0.9956
vn 0.7274 0.6836 -0.0602
vn -0.7274 0.6836 -0.0602
vn 0.5729 0.7927 0.2083
vn -0.7262 0.6409 -0.2489
vn 0.2446 0.8157 0.5241
vn -0.3448 0.6203 -0.7045
vn 0.1534 0.7046 0.6928
vn 0.0825 0.7366 -0.6713
vn -0.0669 -0.0000 -0.9978
vn -0.0335 -0.0000 -0.9994
vn -0.4396 -0.0000 -0.8982
vn -0.9460 -0.0000 -0.3242
vn 0.0732 0.6852 0.7247
vn -0.5207 0.5675 0.6378
vn 0.7064 0.6215 -0.3386
vn 0.5774 0.5773 0.5774
vn 0.3308 0.6231 0.7087
vn 0.7240 0.6377 0.2632
vn -0.5520 0.5726 -0.6061
vn 0.0335 0.6968 -0.7165
vn 0.2553 0.6394 -0.7252
vn 0.5774 0.5773 -0.5774
vt 0.000000 0.142857
vt 0.000000 0.190476
vt 0.047619 0.190476
vt 0.047619 0.142857
vt 0.000000 0.238095
vt 0.047619 0.238095
vt 0.000000 0.285714
vt 0.047619 0.285714
vt 0.000000 0.333333
vt 0.047619 0.333333
vt 0.000000 0.380952
vt 0.047619 0.380952
vt 0.000000 0.428571
vt 0.047619 0.428571
vt 0.000000 0.476190
vt 0.047619 0.476190
vt 0.000000 0.523810
vt 0.047619 0.523810
vt 0.047619 0.095238
vt 0.095238 0.142857
vt 0.095238 0.095238
vt 0.095238 0.190476
vt 0.095238 0.238095
vt 0.095238 0.285714
vt 0.095238 0.333333
vt 0.095238 0.380952
vt 0.095238 0.428571
vt 0.095238 0.476190
vt 0.095238 0.523810
vt 0.095238 0.047619
vt 0.142857 0.095238
vt 0.142857 0.047619
vt 0.142857 0.142857
vt 0.142857 0.190476
vt 0.142857 0.238095
vt 0.142857 0.285714
vt 0.190476 0.285714
vt 0.190476 0.333333
vt 0.142857 0.428571
vt 0.142857 0.380952
vt 0.142857 0.476190
vt 0.142857 0.523810
vt 0.142857 0.000000
vt 0.190476 0.047619
vt 0.190476 0.000000
vt 0.190476 0.095238
vt 0.190476 0.142857
vt 0.190476 0.190476
vt 0.190476 0.238095
vt 0.190476 0.428571
vt 0.190476 0.380952
vt 0.190476 0.476190
vt 0.190476 0.523810
vt 0.238095 0.047619
vt 0.238095 0.000000
vt 0.238095 0.095238
vt 0.238095 0.142857
vt 0.238095 0.190476
vt 0.238095 0.238095
vt 0.238095 0.285714
vt 0.238095 0.333333
vt 0.238095 0.380952
vt 0.238095 0.428571
vt 0.238095 0.476190
vt 0.238095 0.523810
vt 0.285714 0.047619
vt 0.285714 0.000000
vt 0.285714 0.095238
vt 0.285714 0.142857
vt 0.285714 0.190476
vt 0.285714 0.238095
vt 0.285714 0.285714
vt 0.285714 0.333333
vt 0.285714 0.380952
vt 0.285714 0.428571
vt 0.285714 0.476190
vt 0.285714 0.523810
vt 0.333333 0.047619
vt 0.333333 0.000000
vt 0.333333 0.095238
vt 0.380952 0.095238
vt 0.333333 0.238095
vt 0.333333 0.190476
vt 0.333333 0.285714
vt 0.333333 0.333333
vt 0.333333 0.380952
vt 0.333333 0.428571
vt 0.333333 0.476190
vt 0.333333 0.523810
vt 0.380952 0.047619
vt 0.380952 0.000000
vt 0.380952 0.190476
vt 0.380952 0.238095
vt 0.380952 0.285714
vt 0.380952 0.333333
vt 0.428571 0.047619
vt 0.428571 0.000000
vt 0.428571 0.095238
vt 0.380952 0.142857
vt 0.428571 0.142857
vt 0.428571 0.190476
vt 0.428571 0.238095
vt 0.428571 0.285714
vt 0.428571 0.333333
vt 0.476191 0.047619
vt 0.476190 0.000000
vt 0.476191 0.095238
vt 0.476191 0.142857
vt 0.476190 0.190476
vt 0.476190 0.238095
vt 0.476190 0.285714
vt 0.476190 0.333333
vt 0.523810 0.047619
vt 0.523810 0.000000
vt 0.523810 0.095238
vt 0.523810 0.142857
vt 0.523810 0.190476
vt 0.523810 0.238095
vt 0.523810 0.285714
vt 0.523810 0.333333
vt 0.571429 0.047619
vt 0.571429 0.000000
vt 0.571429 0.095238
vt 0.571429 0.142857
vt 0.571429 0.190476
vt 0.571429 0.238095
vt 0.571429 0.285714
vt 0.571429 0.333333
vt 0.336589 0.523810
vt 0.336589 0.476191
vt 0.666667 0.476190
vt 0.658196 0.476190
vt 0.658196 0.523810
vt 0.666667 0.523810
vt 0.619048 0.333333
vt 0.666667 0.333333
vt 0.666667 0.405535
vt 0.666667 0.406940
vt 0.619048 0.047619
vt 0.619048 0.000000
vt 0.619048 0.095238
vt 0.619048 0.142857
vt 0.619048 0.190476
vt 0.619048 0.238095
vt 0.619048 0.285714
vt 0.666667 0.353600
vt 0.666667 0.350100
vt 0.666667 0.047619
vt 0.666667 0.000000
vt 0.666667 0.095238
vt 0.666667 0.142857
vt 0.666667 0.190476
vt 0.666667 0.238095
vt 0.666667 0.285714
vt 0.714286 0.047619
vt 0.714286 0.000000
vt 0.714286 0.095238
vt 0.714286 0.142857
vt 0.714286 0.190476
vt 0.714286 0.238095
vt 0.714286 0.285714
vt 0.714286 0.333333
vt 0.714286 0.380952
vt 0.714286 0.428571
vt 0.714286 0.476190
vt 0.714286 0.523810
vt 0.761905 0.047619
vt 0.761905 0.000000
vt 0.761905 0.095238
vt 0.761905 0.142857
vt 0.809524 0.142857
vt 0.761905 0.285714
vt 0.761905 0.238095
vt 0.761905 0.333333
vt 0.761905 0.380952
vt 0.761905 0.428571
vt 0.761905 0.476190
vt 0.761905 0.523810
vt 0.809524 0.047619
vt 0.809524 0.000000
vt 0.809524 0.095238
vt 0.809524 0.238095
vt 0.809524 0.285714
vt 0.809524 0.333333
vt 0.809524 0.380952
vt 0.809524 0.428571
vt 0.809524 0.476190
vt 0.809524 0.523810
vt 0.857143 0.047619
vt 0.857143 0.000000
vt 0.857143 0.095238
vt 0.857143 0.142857
vt 0.809524 0.190476
vt 0.857143 0.190476
vt 0.857143 0.238095
vt 0.857143 0.285714
vt 0.857143 0.333333
vt 0.904762 0.333333
vt 0.857143 0.476190
vt 0.857143 0.428571
vt 0.857143 0.523810
vt 0.904762 0.095238
vt 0.904762 0.047619
vt 0.904762 0.142857
vt 0.904762 0.190476
vt 0.904762 0.238095
vt 0.904762 0.285714
vt 0.904762 0.428571
vt 0.904762 0.476190
vt 0.904762 0.523810
vt 0.952381 0.142857
vt 0.952381 0.095238
vt 0.952381 0.190476
vt 0.952381 0.238095
vt 0.952381 0.285714
vt 0.952381 0.333333
vt 0.904762 0.380952
vt 0.952381 0.380952
vt 0.952381 0.428571
vt 0.952381 0.476190
vt 0.952381 0.523810
vt 1.000000 0.190476
vt 1.000000 0.142857
vt 1.000000 0.238095
vt 1.000000 0.285714
vt 1.000000 0.333333
vt 1.000000 0.380952
vt 1.000000 0.428571
vt 1.000000 0.476190
vt 1.000000 0.523810
vt 0.380952 0.380952
vt 0.380952 0.428571
vt 0.380952 0.476190
vt 0.380952 0.523810
vt 0.428571 0.380952
vt 0.428571 0.428571
vt 0.428571 0.476190
vt 0.428571 0.523810
vt 0.476190 0.380952
vt 0.476190 0.428571
vt 0.476190 0.476190
vt 0.476190 0.523810
vt 0.523810 0.380952
vt 0.523810 0.428571
vt 0.523810 0.476190
vt 0.523810 0.523810
vt 0.571429 0.380952
vt 0.571429 0.428571
vt 0.571429 0.476190
vt 0.571429 0.523810
vt 0.619048 0.380952
vt 0.619048 0.428571
vt 0.619048 0.476190
vt 0.619048 0.523810
vt 0.106007 0.040384
vt 0.000000 0.040384
vt 0.142857 0.333333
vt 0.333333 0.142857
vt 0.857143 0.380952
vt 0.761905 0.190476
vt 0.000000 0.000000
vt 0.170267 0.064864
vt 0.000000 0.053976
vt 1.000000 0.380952
vt 0.000000 0.380952
vt 0.106007 0.040384
vt 0.000000 0.040384
vt 1.000000 0.380952
s 1
f 39/1/1 38/2/2 66/3/3 65/4/4
f 38/2/2 37/5/5 67/6/3 66/3/3
f 37/5/5 36/7/6 68/8/3 67/6/3
f 36/7/6 35/9/7 69/10/3 68/8/3
f 35/9/7 34/11/8 70/12/3 69/10/3
f 34/11/8 33/13/3 71/14/3 70/12/3
f 33/13/3 32/15/3 72/16/3 71/14/3
f 32/15/3 1/17/3 3/18/3 72/16/3
f 64/19/9 65/4/4 75/20/3 74/21/10
f 65/4/4 66/3/3 76/22/3 75/20/3
f 66/3/3 67/6/3 77/23/3 76/22/3
f 67/6/3 68/8/3 78/24/11 77/23/3
f 68/8/3 69/10/3 79/25/12 78/24/11
f 69/10/3 70/12/3 80/26/13 79/25/12
f 70/12/3 71/14/3 81/27/3 80/26/13
f 71/14/3 72/16/3 82/28/3 81/27/3
f 72/16/3 3/18/3 4/29/3 82/28/3
f 73/30/14 74/21/10 84/31/3 83/32/15
f 74/21/10 75/20/3 85/33/3 84/31/3
f 75/20/3 76/22/3 86/34/3 85/33/3
f 76/22/3 77/23/3 87/35/3 86/34/3
f 77/23/3 78/24/11 88/36/16 87/35/3
f 98/37/17 326/37/18 327/38/19 99/38/19
f 79/25/12 321/25/12 320/24/20 78/24/11
f 80/26/13 81/27/3 91/39/3 90/40/21
f 81/27/3 82/28/3 92/41/3 91/39/3
f 82/28/3 4/29/3 5/42/3 92/41/3
f 40/43/22 83/32/15 93/44/3 41/45/23
f 83/32/15 84/31/3 94/46/3 93/44/3
f 84/31/3 85/33/3 95/47/3 94/46/3
f 85/33/3 86/34/3 96/48/3 95/47/3
f 86/34/3 87/35/3 97/49/3 96/48/3
f 87/35/3 88/36/16 98/37/17 97/49/3
f 78/24/11 320/24/20 323/36/16 88/36/16
f 88/36/16 323/36/16 326/37/18 98/37/17
f 90/40/21 91/39/3 101/50/3 100/51/24
f 91/39/3 92/41/3 102/52/3 101/50/3
f 92/41/3 5/42/3 6/53/3 102/52/3
f 41/45/23 93/44/3 103/54/3 42/55/25
f 93/44/3 94/46/3 104/56/3 103/54/3
f 94/46/3 95/47/3 105/57/3 104/56/3
f 95/47/3 96/48/3 106/58/3 105/57/3
f 96/48/3 97/49/3 107/59/3 106/58/3
f 97/49/3 98/37/17 108/60/3 107/59/3
f 98/37/17 99/38/19 109/61/3 108/60/3
f 99/38/19 100/51/24 110/62/3 109/61/3
f 100/51/24 101/50/3 111/63/3 110/62/3
f 101/50/3 102/52/3 112/64/3 111/63/3
f 102/52/3 6/53/3 7/65/3 112/64/3
f 42/55/25 103/54/3 113/66/3 43/67/26
f 103/54/3 104/56/3 114/68/11 113/66/3
f 104/56/3 105/57/3 115/69/12 114/68/11
f 105/57/3 106/58/3 116/70/13 115/69/12
f 106/58/3 107/59/3 117/71/3 116/70/13
f 107/59/3 108/60/3 118/72/27 117/71/3
f 108/60/3 109/61/3 119/73/28 118/72/27
f 109/61/3 110/62/3 120/74/29 119/73/28
f 110/62/3 111/63/3 121/75/30 120/74/29
f 111/63/3 112/64/3 122/76/31 121/75/30
f 112/64/3 7/65/3 8/77/32 122/76/31
f 43/67/26 113/66/3 123/78/3 44/79/33
f 113/66/3 114/68/11 124/80/16 123/78/3
f 114/68/11 89/68/20 331/80/16 124/80/16
f 124/80/16 331/80/16 334/81/18 133/81/17
f 116/70/13 117/71/3 126/82/3 125/83/21
f 117/71/3 118/72/27 127/84/34 126/82/3
f 118/72/27 119/73/28 128/85/35 127/84/34
f 119/73/28 120/74/29 129/86/36 128/85/35
f 120/74/29 121/75/30 130/87/37 129/86/36
f 121/75/30 122/76/31 131/88/38 130/87/37
f 122/76/31 8/77/32 9/89/39 131/88/38
f 44/79/33 123/78/3 132/90/3 45/91/40
f 123/78/3 124/80/16 133/81/17 132/90/3
f 125/83/21 333/83/21 330/70/41 116/70/13
f 135/92/24 336/92/42 333/83/21 125/83/21
f 125/83/21 126/82/3 136/93/3 135/92/24
f 126/82/3 127/84/34 137/94/43 136/93/3
f 127/84/34 128/85/35 138/95/44 137/94/43
f 45/91/40 132/90/3 139/96/3 46/97/45
f 132/90/3 133/81/17 140/98/3 139/96/3
f 133/81/17 134/99/19 141/100/3 140/98/3
f 134/99/19 135/92/24 142/101/3 141/100/3
f 135/92/24 136/93/3 143/102/3 142/101/3
f 136/93/3 137/94/43 144/103/46 143/102/3
f 137/94/43 138/95/44 145/104/47 144/103/46
f 46/97/45 139/96/3 146/105/3 47/106/48
f 139/96/3 140/98/3 147/107/3 146/105/3
f 140/98/3 141/100/3 148/108/3 147/107/3
f 141/100/3 142/101/3 149/109/3 148/108/3
f 142/101/3 143/102/3 150/110/3 149/109/3
f 143/102/3 144/103/46 151/111/49 150/110/3
f 144/103/46 145/104/47 152/112/50 151/111/49
f 47/106/48 146/105/3 153/113/3 48/114/51
f 146/105/3 147/107/3 154/115/3 153/113/3
f 147/107/3 148/108/3 155/116/3 154/115/3
f 148/108/3 149/109/3 156/117/3 155/116/3
f 149/109/3 150/110/3 157/118/3 156/117/3
f 150/110/3 151/111/49 158/119/52 157/118/3
f 151/111/49 152/112/50 159/120/53 158/119/52
f 128/85/35 242/85/54 246/95/55 138/95/44
f 145/104/47 250/104/56 254/112/57 152/112/50
f 48/114/51 153/113/3 160/121/3 49/122/58
f 153/113/3 154/115/3 161/123/3 160/121/3
f 154/115/3 155/116/3 162/124/3 161/123/3
f 155/116/3 156/117/3 163/125/3 162/124/3
f 156/117/3 157/118/3 164/126/3 163/125/3
f 157/118/3 158/119/52 165/127/59 164/126/3
f 158/119/52 159/120/53 166/128/60 165/127/59
f 9/89/39 17/129/61 245/130/62 131/88/38
f 159/120/53 258/120/63 262/128/64 166/128/60
f 183/131/65 273/132/66 24/133/67 10/134/68
f 173/135/69 266/135/70 270/136/71 180/136/72
f 131/88/38 245/130/62 244/87/73 130/87/37
f 182/137/74 272/138/75 273/132/66 183/131/65
f 130/87/37 244/87/73 243/86/76 129/86/36
f 49/122/58 160/121/3 167/139/3 50/140/77
f 160/121/3 161/123/3 168/141/3 167/139/3
f 161/123/3 162/124/3 169/142/3 168/141/3
f 162/124/3 163/125/3 170/143/3 169/142/3
f 163/125/3 164/126/3 171/144/3 170/143/3
f 164/126/3 165/127/59 172/145/78 171/144/3
f 165/127/59 166/128/60 173/135/69 172/145/78
f 181/146/79 271/147/80 272/138/75 182/137/74
f 129/86/36 243/86/76 242/85/54 128/85/35
f 180/136/72 270/136/71 271/147/80 181/146/79
f 138/95/44 246/95/55 250/104/56 145/104/47
f 50/140/77 167/139/3 174/148/3 51/149/81
f 167/139/3 168/141/3 175/150/3 174/148/3
f 168/141/3 169/142/3 176/151/3 175/150/3
f 169/142/3 170/143/3 177/152/3 176/151/3
f 170/143/3 171/144/3 178/153/3 177/152/3
f 171/144/3 172/145/78 179/154/82 178/153/3
f 172/145/78 173/135/69 180/136/72 179/154/82
f 152/112/50 254/112/57 258/120/63 159/120/53
f 166/128/60 262/128/64 266/135/70 173/135/69
f 51/149/81 174/148/3 184/155/3 52/156/83
f 174/148/3 175/150/3 185/157/3 184/155/3
f 175/150/3 176/151/3 186/158/84 185/157/3
f 176/151/3 177/152/3 187/159/85 186/158/84
f 177/152/3 178/153/3 188/160/86 187/159/85
f 178/153/3 179/154/82 189/161/87 188/160/86
f 179/154/82 180/136/72 190/162/88 189/161/87
f 180/136/72 181/146/79 191/163/89 190/162/88
f 181/146/79 182/137/74 192/164/90 191/163/89
f 182/137/74 183/131/65 193/165/91 192/164/90
f 183/131/65 10/134/68 11/166/92 193/165/91
f 52/156/83 184/155/3 194/167/3 53/168/93
f 184/155/3 185/157/3 195/169/3 194/167/3
f 185/157/3 186/158/84 196/170/94 195/169/3
f 186/158/84 346/158/95 349/170/96 196/170/94
f 196/170/94 349/170/96 352/171/97 206/171/98
f 188/160/86 189/161/87 199/172/3 198/173/99
f 189/161/87 190/162/88 200/174/3 199/172/3
f 190/162/88 191/163/89 201/175/3 200/174/3
f 191/163/89 192/164/90 202/176/3 201/175/3
f 192/164/90 193/165/91 203/177/3 202/176/3
f 193/165/91 11/166/92 12/178/3 203/177/3
f 53/168/93 194/167/3 204/179/3 54/180/100
f 194/167/3 195/169/3 205/181/3 204/179/3
f 195/169/3 196/170/94 206/171/98 205/181/3
f 198/173/99 351/173/101 348/160/102 188/160/86
f 208/182/103 354/182/104 351/173/101 198/173/99
f 198/173/99 199/172/3 209/183/3 208/182/103
f 199/172/3 200/174/3 210/184/84 209/183/3
f 200/174/3 201/175/3 211/185/85 210/184/84
f 201/175/3 202/176/3 212/186/86 211/185/85
f 202/176/3 203/177/3 213/187/3 212/186/86
f 203/177/3 12/178/3 13/188/3 213/187/3
f 54/180/100 204/179/3 214/189/105 55/190/106
f 204/179/3 205/181/3 215/191/3 214/189/105
f 205/181/3 206/171/98 216/192/3 215/191/3
f 206/171/98 207/193/107 217/194/3 216/192/3
f 207/193/107 208/182/103 218/195/3 217/194/3
f 208/182/103 209/183/3 219/196/3 218/195/3
f 209/183/3 210/184/84 220/197/94 219/196/3
f 210/184/84 337/184/95 340/197/96 220/197/94
f 220/197/94 340/197/96 343/198/97 229/198/98
f 212/186/86 213/187/3 222/199/3 221/200/99
f 213/187/3 13/188/3 14/201/3 222/199/3
f 214/189/105 215/191/3 224/202/108 223/203/109
f 215/191/3 216/192/3 225/204/3 224/202/108
f 216/192/3 217/194/3 226/205/3 225/204/3
f 217/194/3 218/195/3 227/206/3 226/205/3
f 218/195/3 219/196/3 228/207/3 227/206/3
f 219/196/3 220/197/94 229/198/98 228/207/3
f 221/200/99 342/200/101 339/186/102 212/186/86
f 231/208/103 345/208/104 342/200/101 221/200/99
f 221/200/99 222/199/3 232/209/3 231/208/103
f 222/199/3 14/201/3 15/210/3 232/209/3
f 224/202/108 225/204/3 234/211/110 233/212/111
f 225/204/3 226/205/3 235/213/3 234/211/110
f 226/205/3 227/206/3 236/214/3 235/213/3
f 227/206/3 228/207/3 237/215/3 236/214/3
f 228/207/3 229/198/98 238/216/3 237/215/3
f 229/198/98 230/217/107 239/218/3 238/216/3
f 230/217/107 231/208/103 240/219/3 239/218/3
f 231/208/103 232/209/3 241/220/3 240/219/3
f 232/209/3 15/210/3 16/221/3 241/220/3
f 234/211/110 235/213/3 57/222/112 56/223/113
f 235/213/3 236/214/3 58/224/114 57/222/112
f 236/214/3 237/215/3 59/225/115 58/224/114
f 237/215/3 238/216/3 60/226/116 59/225/115
f 238/216/3 239/218/3 61/227/117 60/226/116
f 239/218/3 240/219/3 62/228/3 61/227/117
f 240/219/3 241/220/3 63/229/3 62/228/3
f 241/220/3 16/221/3 2/230/3 63/229/3
f 242/85/54 243/86/76 247/231/118 246/95/55
f 243/86/76 244/87/73 248/232/119 247/231/118
f 244/87/73 245/130/62 249/233/120 248/232/119
f 245/130/62 17/129/61 18/234/121 249/233/120
f 246/95/55 247/231/118 251/235/122 250/104/56
f 247/231/118 248/232/119 252/236/3 251/235/122
f 248/232/119 249/233/120 253/237/3 252/236/3
f 249/233/120 18/234/121 19/238/3 253/237/3
f 250/104/56 251/235/122 255/239/123 254/112/57
f 251/235/122 252/236/3 256/240/3 255/239/123
f 252/236/3 253/237/3 257/241/3 256/240/3
f 253/237/3 19/238/3 20/242/3 257/241/3
f 254/112/57 255/239/123 259/243/124 258/120/63
f 255/239/123 256/240/3 260/244/3 259/243/124
f 256/240/3 257/241/3 261/245/3 260/244/3
f 257/241/3 20/242/3 21/246/3 261/245/3
f 258/120/63 259/243/124 263/247/125 262/128/64
f 259/243/124 260/244/3 264/248/3 263/247/125
f 260/244/3 261/245/3 265/249/3 264/248/3
f 261/245/3 21/246/3 22/250/3 265/249/3
f 262/128/64 263/247/125 267/251/126 266/135/70
f 263/247/125 264/248/3 268/252/127 267/251/126
f 264/248/3 265/249/3 269/253/128 268/252/127
f 265/249/3 22/250/3 23/254/129 269/253/128
f 266/135/70 267/251/126 271/147/80 270/136/71
f 267/251/126 268/252/127 272/138/75 271/147/80
f 268/252/127 269/253/128 273/132/66 272/138/75
f 269/253/128 23/254/129 24/133/67 273/132/66
f 43/67/26 285/67/130 284/55/131 42/55/25
f 56/223/113 298/223/132 316/211/133 234/211/110
f 44/79/33 286/79/134 285/67/130 43/67/26
f 40/43/22 282/43/135 311/32/136 83/32/15
f 45/91/40 287/91/137 286/79/134 44/79/33
f 46/97/45 288/97/138 287/91/137 45/91/40
f 47/106/48 289/106/139 288/97/138 46/97/45
f 48/114/51 290/114/140 289/106/139 47/106/48
f 74/21/10 310/21/141 307/19/142 64/19/9
f 49/122/58 291/122/143 290/114/140 48/114/51
f 224/202/108 314/202/144 313/203/145 223/203/109
f 50/140/77 292/140/146 291/122/143 49/122/58
f 73/30/14 309/30/147 310/21/141 74/21/10
f 51/149/81 293/149/148 292/140/146 50/140/77
f 52/156/83 294/156/149 293/149/148 51/149/81
f 233/212/111 315/212/150 314/202/144 224/202/108
f 53/168/93 295/168/151 294/156/149 52/156/83
f 54/180/100 296/180/152 295/168/151 53/168/93
f 55/190/106 297/190/153 296/180/152 54/180/100
f 214/189/105 312/189/154 297/190/153 55/190/106
f 57/222/112 299/222/155 298/223/132 56/223/113
f 58/224/114 300/224/156 299/222/155 57/222/112
f 59/225/115 301/225/157 300/224/156 58/224/114
f 223/203/109 313/203/145 312/189/154 214/189/105
f 65/4/4 308/4/158 281/1/159 39/1/1
f 60/226/116 302/226/160 301/225/157 59/225/115
f 32/15/3 275/15/3 25/17/3 1/17/3
f 64/19/9 307/19/142 308/4/158 65/4/4
f 61/227/117 906/227/161 303/227/162 302/226/160 60/226/116
f 33/13/3 274/13/3 275/15/3 32/15/3
f 62/228/3 305/228/3 306/227/163 61/227/117
f 34/11/8 318/11/164 274/13/3 33/13/3
f 63/229/3 304/229/3 305/228/3 62/228/3
f 35/9/7 277/9/165 276/11/166 902/11/167 34/11/8
f 2/230/3 26/230/3 304/229/3 63/229/3
f 36/7/6 278/7/168 277/9/165 35/9/7
f 37/5/5 279/5/169 278/7/168 36/7/6
f 38/2/2 280/2/170 279/5/169 37/5/5
f 39/1/1 281/1/159 280/2/170 38/2/2
f 83/32/15 311/32/136 309/30/147 73/30/14
f 41/45/23 283/45/171 282/43/135 40/43/22
f 234/211/110 316/211/133 315/212/150 233/212/111
f 42/55/25 284/55/131 283/45/171 41/45/23
f 907/255/172 906/227/161 61/227/117 306/227/163
f 903/256/173 318/11/164 34/11/8 902/11/167
f 320/24/20 321/25/12 324/257/3 323/36/16
f 321/25/12 322/26/41 325/40/21 324/257/3
f 323/36/16 324/257/3 327/38/19 326/37/18
f 324/257/3 325/40/21 328/51/42 327/38/19
f 80/26/13 322/26/41 321/25/12 79/25/12
f 99/38/19 327/38/19 328/51/42 100/51/24
f 100/51/24 328/51/42 325/40/21 90/40/21
f 90/40/21 325/40/21 322/26/41 80/26/13
f 89/68/20 329/69/12 332/258/3 331/80/16
f 329/69/12 330/70/41 333/83/21 332/258/3
f 331/80/16 332/258/3 335/99/19 334/81/18
f 332/258/3 333/83/21 336/92/42 335/99/19
f 115/69/12 329/69/12 89/68/20 114/68/11
f 133/81/17 334/81/18 335/99/19 134/99/19
f 116/70/13 330/70/41 329/69/12 115/69/12
f 134/99/19 335/99/19 336/92/42 135/92/24
f 337/184/95 338/185/174 341/259/3 340/197/96
f 338/185/174 339/186/102 342/200/101 341/259/3
f 340/197/96 341/259/3 344/217/175 343/198/97
f 341/259/3 342/200/101 345/208/104 344/217/175
f 212/186/86 339/186/102 338/185/174 211/185/85
f 229/198/98 343/198/97 344/217/175 230/217/107
f 211/185/85 338/185/174 337/184/95 210/184/84
f 230/217/107 344/217/175 345/208/104 231/208/103
f 346/158/95 347/159/174 350/260/3 349/170/96
f 347/159/174 348/160/102 351/173/101 350/260/3
f 349/170/96 350/260/3 353/193/175 352/171/97
f 350/260/3 351/173/101 354/182/104 353/193/175
f 188/160/86 348/160/102 347/159/174 187/159/85
f 207/193/107 353/193/175 354/182/104 208/182/103
f 187/159/85 347/159/174 346/158/95 186/158/84
f 206/171/98 352/171/97 353/193/175 207/193/107
f 305/228/3 355/228/3 356/227/176 306/227/163
f 304/229/3 197/229/3 355/228/3 305/228/3
f 26/230/3 27/230/3 197/229/3 304/229/3
f 737/227/177 736/261/178 820/261/179 909/262/180
f 302/261/160 386/261/181 385/261/182 301/261/157
f 301/261/157 385/261/182 384/261/114 300/261/156
f 300/261/156 384/261/114 383/261/112 299/261/155
f 299/261/155 383/261/112 382/261/113 298/261/132
f 298/261/132 382/261/113 396/261/110 316/261/133
f 316/261/133 396/261/110 395/261/111 315/261/150
f 315/261/150 395/261/111 394/261/108 314/261/144
f 314/261/144 394/261/108 393/261/109 313/261/145
f 313/261/145 393/261/109 392/261/183 312/261/154
f 312/261/154 392/261/183 381/261/106 297/261/153
f 297/261/153 381/261/106 380/261/100 296/261/152
f 296/261/152 380/261/100 379/261/93 295/261/151
f 295/261/151 379/261/93 378/261/83 294/261/149
f 294/261/149 378/261/83 377/261/184 293/261/148
f 293/261/148 377/261/184 376/261/185 292/261/146
f 292/261/146 376/261/185 375/261/3 291/261/143
f 291/261/143 375/261/3 374/261/3 290/261/140
f 290/261/140 374/261/3 373/261/3 289/261/139
f 289/261/139 373/261/3 372/261/3 288/261/138
f 288/261/138 372/261/3 371/261/186 287/261/137
f 287/261/137 371/261/186 370/261/187 286/261/134
f 286/261/134 370/261/187 369/261/26 285/261/130
f 285/261/130 369/261/26 368/261/25 284/261/131
f 284/261/131 368/261/25 367/261/23 283/261/171
f 283/261/171 367/261/23 366/261/22 282/261/135
f 282/261/135 366/261/22 391/261/15 311/261/136
f 311/261/136 391/261/15 389/261/14 309/261/147
f 309/261/147 389/261/14 390/261/10 310/261/141
f 310/261/141 390/261/10 387/261/9 307/261/142
f 307/261/142 387/261/9 388/261/188 308/261/158
f 308/261/158 388/261/188 365/261/1 281/261/159
f 281/261/159 365/261/1 364/261/2 280/261/170
f 280/261/170 364/261/2 363/261/5 279/261/169
f 279/261/169 363/261/5 362/261/6 278/261/168
f 278/261/168 362/261/6 361/261/189 277/261/165
f 868/261/190 795/261/191 433/263/192 959/261/193
f 397/261/12 359/261/19 317/261/194 908/262/195 303/227/162
f 360/261/19 359/261/19 397/261/12 398/261/12
f 29/261/19 360/261/19 398/261/12 31/261/12
f 276/11/166 867/263/196 319/261/197 358/261/12 400/261/19
f 358/261/12 357/261/12 399/261/19 400/261/19
f 357/261/12 28/261/12 30/261/19 399/261/19
f 356/227/176 402/227/198 401/227/199 306/227/163
f 409/261/200 408/261/201 407/261/3 410/261/3
f 411/261/3 406/261/3 405/261/3 412/261/3
f 413/261/3 404/261/3 403/261/202 414/261/203
f 410/261/3 407/261/3 406/261/3 411/261/3
f 412/261/3 405/261/3 404/261/3 413/261/3
f 373/261/3 412/261/3 413/261/3 372/261/3
f 375/261/3 410/261/3 411/261/3 374/261/3
f 372/261/3 413/261/3 414/261/203 371/261/186
f 374/261/3 411/261/3 412/261/3 373/261/3
f 376/261/185 409/261/200 410/261/3 375/261/3
f 409/261/200 416/261/204 415/261/205 408/261/201
f 402/227/198 418/227/206 417/227/207 401/227/199
f 416/261/204 420/261/208 419/261/209 415/261/205
f 417/227/207 418/227/206 419/261/209 420/261/208
f 420/261/208 425/261/210 424/227/211 417/227/207
f 416/261/204 423/261/212 425/261/210 420/261/208
f 417/227/207 424/227/211 421/227/213 961/264/214 962/227/214 401/227/199
f 409/261/200 422/261/215 423/261/212 416/261/204
f 402/227/198 427/227/216 430/227/217 418/227/206
f 415/261/205 429/261/218 428/261/219 408/261/201
f 356/227/176 426/227/220 427/227/216 402/227/198
f 418/227/206 430/227/217 431/261/221 419/261/209
f 419/261/209 431/261/221 429/261/218 415/261/205
f 867/263/196 361/261/189 434/261/222 960/261/223
f 368/261/25 369/261/26 442/261/26 441/261/25
f 383/261/112 384/261/114 453/261/114 452/261/112
f 388/261/188 387/261/9 456/261/224 457/261/4
f 381/261/106 392/261/183 461/261/105 450/261/106
f 367/261/23 368/261/25 441/261/25 440/261/23
f 382/261/113 383/261/112 452/261/112 451/261/113
f 365/261/1 388/261/188 457/261/4 438/261/1
f 380/261/100 381/261/106 450/261/106 449/261/100
f 366/261/22 367/261/23 440/261/23 439/261/22
f 396/261/110 382/261/113 451/261/113 465/261/110
f 364/261/2 365/261/1 438/261/1 437/261/2
f 379/261/93 380/261/100 449/261/100 448/261/93
f 391/261/15 366/261/22 439/261/22 460/261/15
f 395/261/111 396/261/110 465/261/110 464/261/111
f 363/261/5 364/261/2 437/261/2 436/261/5
f 378/261/83 379/261/93 448/261/93 447/261/83
f 389/261/14 391/261/15 460/261/15 458/261/14
f 394/261/108 395/261/111 464/261/111 463/261/108
f 362/261/6 363/261/5 436/261/5 435/261/225
f 377/261/184 378/261/83 447/261/83 446/261/184
f 370/261/187 371/261/186 444/261/226 443/261/187
f 385/261/182 386/261/181 455/261/227 454/261/182
f 390/261/10 389/261/14 458/261/14 459/261/10
f 393/261/109 394/261/108 463/261/108 462/261/228
f 361/261/189 362/261/6 435/261/225 434/261/222
f 376/261/185 377/261/184 446/261/184 445/261/229
f 369/261/26 370/261/187 443/261/187 442/261/26
f 384/261/114 385/261/182 454/261/182 453/261/114
f 387/261/9 390/261/10 459/261/10 456/261/224
f 392/261/183 393/261/109 462/261/228 461/261/105
f 376/261/185 445/261/229 422/261/215 409/261/200
f 473/1/230 499/4/231 500/3/3 472/2/232
f 472/2/232 500/3/3 501/6/3 471/5/233
f 471/5/233 501/6/3 502/8/3 470/7/234
f 470/7/234 502/8/3 503/10/3 469/9/235
f 469/9/235 503/10/3 504/12/3 468/11/236
f 468/11/236 504/12/3 505/14/3 467/13/3
f 467/13/3 505/14/3 506/16/3 466/15/3
f 466/15/3 506/16/3 3/18/3 1/17/3
f 498/19/237 508/21/238 509/20/3 499/4/231
f 499/4/231 509/20/3 510/22/3 500/3/3
f 500/3/3 510/22/3 511/23/3 501/6/3
f 501/6/3 511/23/3 512/24/13 502/8/3
f 502/8/3 512/24/13 513/25/12 503/10/3
f 503/10/3 513/25/12 514/26/11 504/12/3
f 504/12/3 514/26/11 515/27/3 505/14/3
f 505/14/3 515/27/3 516/28/3 506/16/3
f 506/16/3 516/28/3 4/29/3 3/18/3
f 507/30/239 517/32/240 518/31/3 508/21/238
f 508/21/238 518/31/3 519/33/3 509/20/3
f 509/20/3 519/33/3 520/34/3 510/22/3
f 510/22/3 520/34/3 521/35/3 511/23/3
f 511/23/3 521/35/3 522/36/21 512/24/13
f 532/37/24 533/38/19 761/38/19 760/37/42
f 513/25/12 512/24/13 754/24/41 755/25/12
f 514/26/11 524/40/16 525/39/3 515/27/3
f 515/27/3 525/39/3 526/41/3 516/28/3
f 516/28/3 526/41/3 5/42/3 4/29/3
f 474/43/241 475/45/242 527/44/3 517/32/240
f 517/32/240 527/44/3 528/46/3 518/31/3
f 518/31/3 528/46/3 529/47/3 519/33/3
f 519/33/3 529/47/3 530/48/3 520/34/3
f 520/34/3 530/48/3 531/49/3 521/35/3
f 521/35/3 531/49/3 532/37/24 522/36/21
f 512/24/13 522/36/21 757/36/21 754/24/41
f 522/36/21 532/37/24 760/37/42 757/36/21
f 524/40/16 534/51/17 535/50/3 525/39/3
f 525/39/3 535/50/3 536/52/3 526/41/3
f 526/41/3 536/52/3 6/53/3 5/42/3
f 475/45/242 476/55/243 537/54/3 527/44/3
f 527/44/3 537/54/3 538/56/3 528/46/3
f 528/46/3 538/56/3 539/57/3 529/47/3
f 529/47/3 539/57/3 540/58/3 530/48/3
f 530/48/3 540/58/3 541/59/3 531/49/3
f 531/49/3 541/59/3 542/60/3 532/37/24
f 532/37/24 542/60/3 543/61/3 533/38/19
f 533/38/19 543/61/3 544/62/3 534/51/17
f 534/51/17 544/62/3 545/63/3 535/50/3
f 535/50/3 545/63/3 546/64/3 536/52/3
f 536/52/3 546/64/3 7/65/3 6/53/3
f 476/55/243 477/67/244 547/66/3 537/54/3
f 537/54/3 547/66/3 548/68/13 538/56/3
f 538/56/3 548/68/13 549/69/12 539/57/3
f 539/57/3 549/69/12 550/70/11 540/58/3
f 540/58/3 550/70/11 551/71/3 541/59/3
f 541/59/3 551/71/3 552/72/245 542/60/3
f 542/60/3 552/72/245 553/73/246 543/61/3
f 543/61/3 553/73/246 554/74/247 544/62/3
f 544/62/3 554/74/247 555/75/248 545/63/3
f 545/63/3 555/75/248 556/76/249 546/64/3
f 546/64/3 556/76/249 8/77/32 7/65/3
f 477/67/244 478/79/250 557/78/3 547/66/3
f 547/66/3 557/78/3 558/80/21 548/68/13
f 548/68/13 558/80/21 765/80/21 523/68/41
f 558/80/21 567/81/24 768/81/42 765/80/21
f 550/70/11 559/83/16 560/82/3 551/71/3
f 551/71/3 560/82/3 561/84/251 552/72/245
f 552/72/245 561/84/251 562/85/252 553/73/246
f 553/73/246 562/85/252 563/86/253 554/74/247
f 554/74/247 563/86/253 564/87/254 555/75/248
f 555/75/248 564/87/254 565/88/255 556/76/249
f 556/76/249 565/88/255 9/89/39 8/77/32
f 478/79/250 479/91/256 566/90/3 557/78/3
f 557/78/3 566/90/3 567/81/24 558/80/21
f 559/83/16 550/70/11 764/70/20 767/83/16
f 569/92/17 559/83/16 767/83/16 770/92/18
f 559/83/16 569/92/17 570/93/3 560/82/3
f 560/82/3 570/93/3 571/94/257 561/84/251
f 561/84/251 571/94/257 572/95/258 562/85/252
f 479/91/256 480/97/259 573/96/3 566/90/3
f 566/90/3 573/96/3 574/98/3 567/81/24
f 567/81/24 574/98/3 575/100/3 568/99/19
f 568/99/19 575/100/3 576/101/3 569/92/17
f 569/92/17 576/101/3 577/102/3 570/93/3
f 570/93/3 577/102/3 578/103/260 571/94/257
f 571/94/257 578/103/260 579/104/261 572/95/258
f 480/97/259 481/106/262 580/105/3 573/96/3
f 573/96/3 580/105/3 581/107/3 574/98/3
f 574/98/3 581/107/3 582/108/3 575/100/3
f 575/100/3 582/108/3 583/109/3 576/101/3
f 576/101/3 583/109/3 584/110/3 577/102/3
f 577/102/3 584/110/3 585/111/263 578/103/260
f 578/103/260 585/111/263 586/112/264 579/104/261
f 481/106/262 482/114/265 587/113/3 580/105/3
f 580/105/3 587/113/3 588/115/3 581/107/3
f 581/107/3 588/115/3 589/116/3 582/108/3
f 582/108/3 589/116/3 590/117/3 583/109/3
f 583/109/3 590/117/3 591/118/3 584/110/3
f 584/110/3 591/118/3 592/119/266 585/111/263
f 585/111/263 592/119/266 593/120/267 586/112/264
f 562/85/252 572/95/258 680/95/268 676/85/269
f 579/104/261 586/112/264 688/112/270 684/104/271
f 482/114/265 483/122/272 594/121/3 587/113/3
f 587/113/3 594/121/3 595/123/3 588/115/3
f 588/115/3 595/123/3 596/124/3 589/116/3
f 589/116/3 596/124/3 597/125/3 590/117/3
f 590/117/3 597/125/3 598/126/3 591/118/3
f 591/118/3 598/126/3 599/127/273 592/119/266
f 592/119/266 599/127/273 600/128/274 593/120/267
f 9/89/39 565/88/255 679/130/275 17/129/61
f 593/120/267 600/128/274 696/128/276 692/120/277
f 617/131/278 10/134/68 24/133/67 707/132/279
f 607/135/280 614/136/281 704/136/282 700/135/283
f 565/88/255 564/87/254 678/87/284 679/130/275
f 616/137/285 617/131/278 707/132/279 706/138/286
f 564/87/254 563/86/253 677/86/287 678/87/284
f 483/122/272 484/140/288 601/139/3 594/121/3
f 594/121/3 601/139/3 602/141/3 595/123/3
f 595/123/3 602/141/3 603/142/3 596/124/3
f 596/124/3 603/142/3 604/143/3 597/125/3
f 597/125/3 604/143/3 605/144/3 598/126/3
f 598/126/3 605/144/3 606/145/289 599/127/273
f 599/127/273 606/145/289 607/135/280 600/128/274
f 615/146/290 616/137/285 706/138/286 705/147/291
f 563/86/253 562/85/252 676/85/269 677/86/287
f 614/136/281 615/146/290 705/147/291 704/136/282
f 572/95/258 579/104/261 684/104/271 680/95/268
f 484/140/288 485/149/292 608/148/3 601/139/3
f 601/139/3 608/148/3 609/150/3 602/141/3
f 602/141/3 609/150/3 610/151/3 603/142/3
f 603/142/3 610/151/3 611/152/3 604/143/3
f 604/143/3 611/152/3 612/153/3 605/144/3
f 605/144/3 612/153/3 613/154/293 606/145/289
f 606/145/289 613/154/293 614/136/281 607/135/280
f 586/112/264 593/120/267 692/120/277 688/112/270
f 600/128/274 607/135/280 700/135/283 696/128/276
f 485/149/292 486/156/294 618/155/3 608/148/3
f 608/148/3 618/155/3 619/157/3 609/150/3
f 609/150/3 619/157/3 620/158/86 610/151/3
f 610/151/3 620/158/86 621/159/85 611/152/3
f 611/152/3 621/159/85 622/160/84 612/153/3
f 612/153/3 622/160/84 623/161/295 613/154/293
f 613/154/293 623/161/295 624/162/296 614/136/281
f 614/136/281 624/162/296 625/163/297 615/146/290
f 615/146/290 625/163/297 626/164/298 616/137/285
f 616/137/285 626/164/298 627/165/299 617/131/278
f 617/131/278 627/165/299 11/166/92 10/134/68
f 486/156/294 487/168/300 628/167/3 618/155/3
f 618/155/3 628/167/3 629/169/3 619/157/3
f 619/157/3 629/169/3 630/170/99 620/158/86
f 620/158/86 630/170/99 783/170/101 780/158/102
f 630/170/99 640/171/103 786/171/104 783/170/101
f 622/160/84 632/173/94 633/172/3 623/161/295
f 623/161/295 633/172/3 634/174/3 624/162/296
f 624/162/296 634/174/3 635/175/3 625/163/297
f 625/163/297 635/175/3 636/176/3 626/164/298
f 626/164/298 636/176/3 637/177/3 627/165/299
f 627/165/299 637/177/3 12/178/3 11/166/92
f 487/168/300 488/180/301 638/179/3 628/167/3
f 628/167/3 638/179/3 639/181/3 629/169/3
f 629/169/3 639/181/3 640/171/103 630/170/99
f 632/173/94 622/160/84 782/160/95 785/173/96
f 642/182/98 632/173/94 785/173/96 788/182/97
f 632/173/94 642/182/98 643/183/3 633/172/3
f 633/172/3 643/183/3 644/184/86 634/174/3
f 634/174/3 644/184/86 645/185/85 635/175/3
f 635/175/3 645/185/85 646/186/84 636/176/3
f 636/176/3 646/186/84 647/187/3 637/177/3
f 637/177/3 647/187/3 13/188/3 12/178/3
f 488/180/301 489/190/302 648/189/303 638/179/3
f 638/179/3 648/189/303 649/191/3 639/181/3
f 639/181/3 649/191/3 650/192/3 640/171/103
f 640/171/103 650/192/3 651/194/3 641/193/107
f 641/193/107 651/194/3 652/195/3 642/182/98
f 642/182/98 652/195/3 653/196/3 643/183/3
f 643/183/3 653/196/3 654/197/99 644/184/86
f 644/184/86 654/197/99 774/197/101 771/184/102
f 654/197/99 663/198/103 777/198/104 774/197/101
f 646/186/84 655/200/94 656/199/3 647/187/3
f 647/187/3 656/199/3 14/201/3 13/188/3
f 648/189/303 657/203/304 658/202/305 649/191/3
f 649/191/3 658/202/305 659/204/3 650/192/3
f 650/192/3 659/204/3 660/205/3 651/194/3
f 651/194/3 660/205/3 661/206/3 652/195/3
f 652/195/3 661/206/3 662/207/3 653/196/3
f 653/196/3 662/207/3 663/198/103 654/197/99
f 655/200/94 646/186/84 773/186/95 776/200/96
f 665/208/98 655/200/94 776/200/96 779/208/97
f 655/200/94 665/208/98 666/209/3 656/199/3
f 656/199/3 666/209/3 15/210/3 14/201/3
f 658/202/305 667/212/306 668/211/307 659/204/3
f 659/204/3 668/211/307 669/213/3 660/205/3
f 660/205/3 669/213/3 670/214/3 661/206/3
f 661/206/3 670/214/3 671/215/3 662/207/3
f 662/207/3 671/215/3 672/216/3 663/198/103
f 663/198/103 672/216/3 673/218/3 664/217/107
f 664/217/107 673/218/3 674/219/3 665/208/98
f 665/208/98 674/219/3 675/220/3 666/209/3
f 666/209/3 675/220/3 16/221/3 15/210/3
f 668/211/307 490/223/308 491/222/309 669/213/3
f 669/213/3 491/222/309 492/224/310 670/214/3
f 670/214/3 492/224/310 493/225/311 671/215/3
f 671/215/3 493/225/311 494/226/312 672/216/3
f 672/216/3 494/226/312 495/227/313 673/218/3
f 673/218/3 495/227/313 496/228/3 674/219/3
f 674/219/3 496/228/3 497/229/3 675/220/3
f 675/220/3 497/229/3 2/230/3 16/221/3
f 676/85/269 680/95/268 681/231/314 677/86/287
f 677/86/287 681/231/314 682/232/315 678/87/284
f 678/87/284 682/232/315 683/233/316 679/130/275
f 679/130/275 683/233/316 18/234/121 17/129/61
f 680/95/268 684/104/271 685/235/317 681/231/314
f 681/231/314 685/235/317 686/236/3 682/232/315
f 682/232/315 686/236/3 687/237/3 683/233/316
f 683/233/316 687/237/3 19/238/3 18/234/121
f 684/104/271 688/112/270 689/239/318 685/235/317
f 685/235/317 689/239/318 690/240/3 686/236/3
f 686/236/3 690/240/3 691/241/3 687/237/3
f 687/237/3 691/241/3 20/242/3 19/238/3
f 688/112/270 692/120/277 693/243/319 689/239/318
f 689/239/318 693/243/319 694/244/3 690/240/3
f 690/240/3 694/244/3 695/245/3 691/241/3
f 691/241/3 695/245/3 21/246/3 20/242/3
f 692/120/277 696/128/276 697/247/320 693/243/319
f 693/243/319 697/247/320 698/248/3 694/244/3
f 694/244/3 698/248/3 699/249/3 695/245/3
f 695/245/3 699/249/3 22/250/3 21/246/3
f 696/128/276 700/135/283 701/251/321 697/247/320
f 697/247/320 701/251/321 702/252/322 698/248/3
f 698/248/3 702/252/322 703/253/323 699/249/3
f 699/249/3 703/253/323 23/254/129 22/250/3
f 700/135/283 704/136/282 705/147/291 701/251/321
f 701/251/321 705/147/291 706/138/286 702/252/322
f 702/252/322 706/138/286 707/132/279 703/253/323
f 703/253/323 707/132/279 24/133/67 23/254/129
f 477/67/244 476/55/243 718/55/324 719/67/325
f 490/223/308 668/211/307 750/211/326 732/223/327
f 478/79/250 477/67/244 719/67/325 720/79/328
f 474/43/241 517/32/240 745/32/329 716/43/330
f 479/91/256 478/79/250 720/79/328 721/91/331
f 480/97/259 479/91/256 721/91/331 722/97/332
f 481/106/262 480/97/259 722/97/332 723/106/333
f 482/114/265 481/106/262 723/106/333 724/114/334
f 508/21/238 498/19/237 741/19/335 744/21/336
f 483/122/272 482/114/265 724/114/334 725/122/337
f 658/202/305 657/203/304 747/203/338 748/202/339
f 484/140/288 483/122/272 725/122/337 726/140/340
f 507/30/239 508/21/238 744/21/336 743/30/341
f 485/149/292 484/140/288 726/140/340 727/149/342
f 486/156/294 485/149/292 727/149/342 728/156/343
f 667/212/306 658/202/305 748/202/339 749/212/344
f 487/168/300 486/156/294 728/156/343 729/168/345
f 488/180/301 487/168/300 729/168/345 730/180/346
f 489/190/302 488/180/301 730/180/346 731/190/347
f 648/189/303 489/190/302 731/190/347 746/189/348
f 491/222/309 490/223/308 732/223/327 733/222/349
f 492/224/310 491/222/309 733/222/349 734/224/350
f 493/225/311 492/224/310 734/224/350 735/225/351
f 657/203/304 648/189/303 746/189/348 747/203/338
f 499/4/231 473/1/230 715/1/352 742/4/353
f 494/226/312 493/225/311 735/225/351 736/226/178
f 466/15/3 1/17/3 25/17/3 709/15/3
f 498/19/237 499/4/231 742/4/353 741/19/335
f 495/227/313 494/226/312 736/226/178 737/227/177 904/227/354
f 467/13/3 466/15/3 709/15/3 708/13/3
f 496/228/3 495/227/313 740/227/355 739/228/3
f 468/11/236 467/13/3 708/13/3 752/11/356
f 497/229/3 496/228/3 739/228/3 738/229/3
f 469/9/235 468/11/236 900/265/357 710/11/358 711/9/359
f 2/230/3 497/229/3 738/229/3 26/230/3
f 470/7/234 469/9/235 711/9/359 712/7/360
f 471/5/233 470/7/234 712/7/360 713/5/361
f 472/2/232 471/5/233 713/5/361 714/2/362
f 473/1/230 472/2/232 714/2/362 715/1/352
f 517/32/240 507/30/239 743/30/341 745/32/329
f 475/45/242 474/43/241 716/43/330 717/45/363
f 668/211/307 667/212/306 749/212/344 750/211/326
f 476/55/243 475/45/242 717/45/363 718/55/324
f 905/266/364 740/227/355 495/227/313 904/227/354
f 901/267/365 900/265/357 468/11/236 752/11/356
f 754/24/41 757/36/21 758/257/3 755/25/12
f 755/25/12 758/257/3 759/40/16 756/26/20
f 757/36/21 760/37/42 761/38/19 758/257/3
f 758/257/3 761/38/19 762/51/18 759/40/16
f 514/26/11 513/25/12 755/25/12 756/26/20
f 533/38/19 534/51/17 762/51/18 761/38/19
f 534/51/17 524/40/16 759/40/16 762/51/18
f 524/40/16 514/26/11 756/26/20 759/40/16
f 523/68/41 765/80/21 766/258/3 763/69/12
f 763/69/12 766/258/3 767/83/16 764/70/20
f 765/80/21 768/81/42 769/99/19 766/258/3
f 766/258/3 769/99/19 770/92/18 767/83/16
f 549/69/12 548/68/13 523/68/41 763/69/12
f 567/81/24 568/99/19 769/99/19 768/81/42
f 550/70/11 549/69/12 763/69/12 764/70/20
f 568/99/19 569/92/17 770/92/18 769/99/19
f 771/184/102 774/197/101 775/259/3 772/185/174
f 772/185/174 775/259/3 776/200/96 773/186/95
f 774/197/101 777/198/104 778/217/175 775/259/3
f 775/259/3 778/217/175 779/208/97 776/200/96
f 646/186/84 645/185/85 772/185/174 773/186/95
f 663/198/103 664/217/107 778/217/175 777/198/104
f 645/185/85 644/184/86 771/184/102 772/185/174
f 664/217/107 665/208/98 779/208/97 778/217/175
f 780/158/102 783/170/101 784/260/3 781/159/174
f 781/159/174 784/260/3 785/173/96 782/160/95
f 783/170/101 786/171/104 787/193/175 784/260/3
f 784/260/3 787/193/175 788/182/97 785/173/96
f 622/160/84 621/159/85 781/159/174 782/160/95
f 641/193/107 642/182/98 788/182/97 787/193/175
f 621/159/85 620/158/86 780/158/102 781/159/174
f 640/171/103 641/193/107 787/193/175 786/171/104
f 739/228/3 740/227/355 790/227/366 789/228/3
f 738/229/3 739/228/3 789/228/3 631/229/3
f 26/230/3 738/229/3 631/229/3 27/230/3
f 820/261/179 889/261/367 910/261/368 909/262/180
f 736/261/178 735/261/351 819/261/369 820/261/179
f 735/261/351 734/261/350 818/261/310 819/261/369
f 734/261/350 733/261/349 817/261/309 818/261/310
f 733/261/349 732/261/327 816/261/308 817/261/309
f 732/261/327 750/261/326 830/261/307 816/261/308
f 750/261/326 749/261/344 829/261/306 830/261/307
f 749/261/344 748/261/339 828/261/305 829/261/306
f 748/261/339 747/261/338 827/261/304 828/261/305
f 747/261/338 746/261/348 826/261/370 827/261/304
f 746/261/348 731/261/347 815/261/302 826/261/370
f 731/261/347 730/261/346 814/261/301 815/261/302
f 730/261/346 729/261/345 813/261/300 814/261/301
f 729/261/345 728/261/343 812/261/294 813/261/300
f 728/261/343 727/261/342 811/261/371 812/261/294
f 727/261/342 726/261/340 810/261/372 811/261/371
f 726/261/340 725/261/337 809/261/3 810/261/372
f 725/261/337 724/261/334 808/261/3 809/261/3
f 724/261/334 723/261/333 807/261/3 808/261/3
f 723/261/333 722/261/332 806/261/3 807/261/3
f 722/261/332 721/261/331 805/261/373 806/261/3
f 721/261/331 720/261/328 804/261/374 805/261/373
f 720/261/328 719/261/325 803/261/244 804/261/374
f 719/261/325 718/261/324 802/261/243 803/261/244
f 718/261/324 717/261/363 801/261/242 802/261/243
f 717/261/363 716/261/330 800/261/241 801/261/242
f 716/261/330 745/261/329 825/261/240 800/261/241
f 745/261/329 743/261/341 823/261/239 825/261/240
f 743/261/341 744/261/336 824/261/238 823/261/239
f 744/261/336 741/261/335 821/261/237 824/261/238
f 741/261/335 742/261/353 822/261/375 821/261/237
f 742/261/353 715/261/352 799/261/230 822/261/375
f 715/261/352 714/261/362 798/261/232 799/261/230
f 714/261/362 713/261/361 797/261/233 798/261/232
f 713/261/361 712/261/360 796/261/234 797/261/233
f 712/261/360 711/261/359 795/261/191 796/261/234
f 433/263/192 795/261/191 711/261/359 710/11/358
f 831/261/12 737/227/177 909/262/180 751/261/376 793/261/19
f 794/261/19 832/261/12 831/261/12 793/261/19
f 29/261/19 31/261/12 832/261/12 794/261/19
f 710/11/358 834/261/19 792/261/12 753/261/377 433/263/192
f 792/261/12 834/261/19 833/261/19 791/261/12
f 791/261/12 833/261/19 30/261/19 28/261/12
f 790/227/366 740/227/355 835/227/378 836/227/379
f 843/261/380 844/261/3 841/261/3 842/261/381
f 845/261/3 846/261/3 839/261/3 840/261/3
f 847/261/3 848/261/382 837/261/383 838/261/3
f 844/261/3 845/261/3 840/261/3 841/261/3
f 846/261/3 847/261/3 838/261/3 839/261/3
f 807/261/3 806/261/3 847/261/3 846/261/3
f 809/261/3 808/261/3 845/261/3 844/261/3
f 806/261/3 805/261/373 848/261/382 847/261/3
f 808/261/3 807/261/3 846/261/3 845/261/3
f 810/261/372 809/261/3 844/261/3 843/261/380
f 843/261/380 842/261/381 849/261/384 850/261/385
f 836/227/379 835/227/378 851/227/386 852/227/387
f 850/261/385 849/261/384 853/261/388 854/261/389
f 851/227/386 854/261/389 853/261/388 852/227/387
f 854/261/389 851/227/386 858/227/390 859/261/391
f 850/261/385 854/261/389 859/261/391 857/261/392
f 851/227/386 835/227/378 963/268/393 964/227/393 855/227/394 858/227/390
f 843/261/380 850/261/385 857/261/392 856/261/395
f 836/227/379 852/227/387 864/227/396 861/227/397
f 849/261/384 842/261/381 862/261/398 863/261/399
f 790/227/366 836/227/379 861/227/397 860/227/400
f 852/227/387 853/261/388 865/261/401 864/227/396
f 853/261/388 849/261/384 863/261/399 865/261/401
f 276/11/166 277/261/165 361/261/189 867/263/196
f 802/261/243 875/261/243 876/261/244 803/261/244
f 817/261/309 886/261/309 887/261/310 818/261/310
f 822/261/375 891/261/375 890/261/402 821/261/237
f 815/261/302 884/261/302 895/261/303 826/261/370
f 801/261/242 874/261/242 875/261/243 802/261/243
f 816/261/308 885/261/308 886/261/309 817/261/309
f 799/261/230 872/261/230 891/261/375 822/261/375
f 814/261/301 883/261/301 884/261/302 815/261/302
f 800/261/241 873/261/241 874/261/242 801/261/242
f 830/261/307 899/261/307 885/261/308 816/261/308
f 798/261/232 871/261/232 872/261/230 799/261/230
f 813/261/300 882/261/300 883/261/301 814/261/301
f 825/261/240 894/261/240 873/261/241 800/261/241
f 829/261/306 898/261/306 899/261/307 830/261/307
f 797/261/233 870/261/233 871/261/232 798/261/232
f 812/261/294 881/261/294 882/261/300 813/261/300
f 823/261/239 892/261/239 894/261/240 825/261/240
f 828/261/305 897/261/305 898/261/306 829/261/306
f 796/261/234 869/261/403 870/261/233 797/261/233
f 811/261/371 880/261/371 881/261/294 812/261/294
f 804/261/374 877/261/374 878/261/404 805/261/373
f 819/261/369 888/261/369 889/261/367 820/261/179
f 824/261/238 893/261/238 892/261/239 823/261/239
f 827/261/304 896/261/405 897/261/305 828/261/305
f 795/261/191 868/261/190 869/261/403 796/261/234
f 810/261/372 879/261/406 880/261/371 811/261/371
f 803/261/244 876/261/244 877/261/374 804/261/374
f 818/261/310 887/261/310 888/261/369 819/261/369
f 821/261/237 890/261/402 893/261/238 824/261/238
f 826/261/370 895/261/303 896/261/405 827/261/304
f 810/261/372 843/261/380 856/261/395 879/261/406
f 902/11/167 276/11/166 400/261/19 399/261/19 30/261/19 833/261/19 834/261/19 710/11/358 900/265/357
f 901/267/365 753/261/377 792/261/12 791/261/12 28/261/12 357/261/12 358/261/12 319/261/197 903/256/173
f 904/227/354 906/227/161 907/255/172 905/266/364
f 907/255/172 317/261/194 359/261/19 360/261/19 29/261/19 794/261/19 793/261/19 751/227/376 905/266/364
f 906/227/161 904/227/354 737/227/177 831/261/12 832/261/12 31/261/12 398/261/12 397/261/12 303/227/162
f 903/256/173 902/11/167 900/265/357 901/267/365
f 909/262/180 910/261/368 866/261/407 751/227/376
f 911/261/408 908/262/195 317/227/194 432/261/409
f 303/227/162 908/262/195 386/261/181 302/261/160
f 908/262/195 911/261/408 455/261/227 386/261/181
f 275/15/3 274/13/3 913/13/3 914/15/3
f 25/17/3 275/15/3 914/15/3 912/17/3
f 274/13/3 318/11/164 915/11/410 913/13/3
f 709/15/3 25/17/3 912/17/3 917/15/3
f 708/13/3 709/15/3 917/15/3 916/13/3
f 752/11/356 708/13/3 916/13/3 918/11/411
f 752/11/356 918/11/411 920/11/412 919/11/413
f 919/11/413 920/11/412 922/11/414 921/11/415
f 921/11/415 922/11/414 924/11/416 923/11/417
f 923/11/417 924/11/416 926/11/418 925/11/419
f 848/261/382 925/11/419 926/11/418 837/261/383
f 920/11/412 918/11/411 928/11/420 929/11/420
f 926/11/418 924/11/416 931/11/421 932/11/422
f 922/11/414 920/11/412 929/11/420 930/11/423
f 837/261/383 926/11/418 932/11/422 927/261/424
f 924/11/416 922/11/414 930/11/423 931/11/421
f 915/11/410 318/11/164 933/11/425 934/11/426
f 934/11/426 933/11/425 935/11/427 936/11/428
f 936/11/428 935/11/427 937/11/429 938/11/430
f 938/11/430 937/11/429 939/11/431 940/11/432
f 403/261/202 940/11/432 939/11/431 414/261/203
f 940/11/432 403/261/202 941/261/433 946/11/434
f 915/11/410 934/11/426 943/11/420 942/11/420
f 938/11/430 940/11/432 946/11/434 945/11/435
f 934/11/426 936/11/428 944/11/436 943/11/420
f 936/11/428 938/11/430 945/11/435 944/11/436
f 414/261/203 939/11/431 958/11/437 948/261/438
f 919/11/413 921/11/415 952/11/439 951/11/12
f 752/11/356 919/11/413 951/11/12 949/11/440
f 939/11/431 937/11/429 957/11/441 958/11/437
f 937/11/429 935/11/427 956/11/442 957/11/441
f 935/11/427 933/11/425 955/11/12 956/11/442
f 925/11/419 848/261/382 950/261/443 954/11/444
f 923/11/417 925/11/419 954/11/444 953/11/445
f 933/11/425 318/11/164 947/11/446 955/11/12
f 921/11/415 923/11/417 953/11/445 952/11/439
f 867/263/196 960/261/223 947/261/446 319/261/197
f 433/263/192 753/261/377 949/261/440 959/261/193
f 848/261/382 805/261/373 878/261/404 950/261/443
f 954/11/444 894/261/240 892/261/239
f 868/261/190 959/261/193 949/261/440
f 951/11/12 952/11/439 893/261/238
f 952/11/439 953/11/445 893/261/238
f 868/261/190 949/261/440 951/11/12
f 869/261/403 868/261/190 951/11/12
f 953/11/445 954/11/444 892/261/239
f 893/261/238 953/11/445 892/261/239
f 954/11/444 950/261/443 876/261/244
f 950/261/443 878/261/404 877/261/374
f 950/261/443 877/261/374 876/261/244
f 869/261/403 951/11/12 870/261/233
f 870/261/233 951/11/12 871/261/232
f 871/261/232 951/11/12 872/261/230
f 954/11/444 876/261/244 875/261/243
f 872/261/230 951/11/12 891/261/375
f 891/261/375 951/11/12 890/261/402
f 954/11/444 875/261/243 874/261/242
f 954/11/444 874/261/242 873/261/241
f 890/261/402 951/11/12 893/261/238
f 954/11/444 873/261/241 894/261/240
f 955/11/12 457/261/4 456/261/224
f 443/261/187 444/261/226 948/261/438
f 958/11/437 957/11/441 459/261/10
f 957/11/441 956/11/442 459/261/10
f 443/261/187 948/261/438 442/261/26
f 948/261/438 958/11/437 442/261/26
f 956/11/442 955/11/12 456/261/224
f 459/261/10 956/11/442 456/261/224
f 947/261/446 960/261/223 434/261/222
f 955/11/12 947/261/446 434/261/222
f 441/261/25 442/261/26 958/11/437
f 440/261/23 441/261/25 958/11/437
f 955/11/12 434/261/222 435/261/225
f 955/11/12 435/261/225 436/261/5
f 440/261/23 958/11/437 439/261/22
f 439/261/22 958/11/437 460/261/15
f 460/261/15 958/11/437 458/261/14
f 955/11/12 436/261/5 437/261/2
f 955/11/12 437/261/2 438/261/1
f 458/261/14 958/11/437 459/261/10
f 955/11/12 438/261/1 457/261/4
f 855/227/394 898/261/306 897/261/305
f 859/261/391 858/227/390 857/261/392
f 858/227/390 855/227/394 897/261/305
f 857/261/392 858/227/390 897/261/305
f 855/227/394 866/261/407 888/261/369
f 866/261/407 910/261/368 889/261/367
f 866/261/407 889/261/367 888/261/369
f 879/261/406 856/261/395 880/261/371
f 856/261/395 857/261/392 881/261/294
f 880/261/371 856/261/395 881/261/294
f 855/227/394 888/261/369 887/261/310
f 881/261/294 857/261/392 882/261/300
f 882/261/300 857/261/392 883/261/301
f 855/227/394 887/261/310 886/261/309
f 855/227/394 886/261/309 885/261/308
f 883/261/301 857/261/392 884/261/302
f 884/261/302 857/261/392 895/261/303
f 855/227/394 885/261/308 899/261/307
f 855/227/394 899/261/307 898/261/306
f 895/261/303 857/261/392 896/261/405
f 896/261/405 857/261/392 897/261/305
f 463/261/108 464/261/111 421/227/213
f 421/227/213 424/227/211 463/261/108
f 424/227/211 425/261/210 423/261/212
f 423/261/212 422/261/215 447/261/83
f 422/261/215 445/261/229 446/261/184
f 424/227/211 423/261/212 463/261/108
f 911/261/408 432/261/409 455/261/227
f 432/261/409 421/227/213 454/261/182
f 455/261/227 432/261/409 454/261/182
f 422/261/215 446/261/184 447/261/83
f 453/261/114 454/261/182 421/227/213
f 423/261/212 447/261/83 448/261/93
f 423/261/212 448/261/93 449/261/100
f 452/261/112 453/261/114 421/227/213
f 451/261/113 452/261/112 421/227/213
f 423/261/212 449/261/100 450/261/106
f 423/261/212 450/261/106 461/261/105
f 465/261/110 451/261/113 421/227/213
f 464/261/111 465/261/110 421/227/213
f 423/261/212 461/261/105 462/261/228
f 423/261/212 462/261/228 463/261/108
f 961/264/214 421/227/213 432/261/409 317/227/194
f 317/227/194 907/255/172 962/227/214 961/264/214
f 401/227/199 962/227/214 907/255/172 306/227/163
f 855/227/394 964/227/393 751/227/376 866/261/407
f 751/227/376 964/227/393 963/268/393 905/266/364
f 835/227/378 740/227/355 905/266/364 963/268/393
f 414/261/203 948/261/438 444/261/226 371/261/186
